<svg viewBox="0 0 415 426" fill="none" xmlns="http://www.w3.org/2000/svg">
                  <path d="M413.379 414.221V117.351C413.379 109.829 405.095 105.252 398.727 109.255L224.94 218.495C220.405 221.346 219.096 227.366 222.039 231.843L239.637 258.615C242.48 262.941 248.25 264.218 252.654 261.497L346.531 203.489C352.901 199.553 361.12 204.135 361.12 211.624V364.209C361.12 369.49 356.838 373.772 351.557 373.772H280.747C275.466 373.772 271.184 378.053 271.184 383.334V414.221C271.184 419.502 275.466 423.783 280.747 423.783H403.816C409.097 423.783 413.379 419.502 413.379 414.221Z" fill="url(#paint0_radial_603_13)"/>
                  <path d="M2 414.221V117.351C2 109.829 10.2833 105.252 16.6514 109.255L190.438 218.495C194.974 221.346 196.283 227.366 193.34 231.843L175.742 258.615C172.898 262.941 167.129 264.218 162.725 261.497L68.8482 203.489C62.4775 199.553 54.2591 204.135 54.2591 211.624V364.209C54.2591 369.49 58.5403 373.772 63.8216 373.772H134.632C139.913 373.772 144.194 378.053 144.194 383.334V414.221C144.194 419.502 139.913 423.783 134.632 423.783H11.5625C6.28128 423.783 2 419.502 2 414.221Z" fill="url(#paint1_radial_603_13)"/>
                  <path d="M344.217 80.7491L207.689 2L71.1619 80.7491C64.9789 84.3155 64.7412 93.1534 70.7236 97.047L101.134 116.839C104.12 118.783 107.939 118.905 111.043 117.156L207.785 62.7697L304.336 117.156C307.44 118.905 311.259 118.783 314.245 116.839L344.655 97.047C350.638 93.1534 350.4 84.3155 344.217 80.7491Z" fill="url(#paint2_linear_603_13)"/>
                  <path d="M413.379 414.221V117.351C413.379 109.829 405.095 105.252 398.727 109.255L224.94 218.495C220.405 221.346 219.096 227.366 222.039 231.843L239.637 258.615C242.48 262.941 248.25 264.218 252.654 261.497L346.531 203.489C352.901 199.553 361.12 204.135 361.12 211.624V364.209C361.12 369.49 356.838 373.772 351.557 373.772H280.747C275.466 373.772 271.184 378.053 271.184 383.334V414.221C271.184 419.502 275.466 423.783 280.747 423.783H403.816C409.097 423.783 413.379 419.502 413.379 414.221Z" stroke="#494949" stroke-width="3.06"/>
                  <path d="M2 414.221V117.351C2 109.829 10.2833 105.252 16.6514 109.255L190.438 218.495C194.974 221.346 196.283 227.366 193.34 231.843L175.742 258.615C172.898 262.941 167.129 264.218 162.725 261.497L68.8482 203.489C62.4775 199.553 54.2591 204.135 54.2591 211.624V364.209C54.2591 369.49 58.5403 373.772 63.8216 373.772H134.632C139.913 373.772 144.194 378.053 144.194 383.334V414.221C144.194 419.502 139.913 423.783 134.632 423.783H11.5625C6.28128 423.783 2 419.502 2 414.221Z" stroke="#494949" stroke-width="3.06"/>
                  <path d="M344.217 80.7491L207.689 2L71.1619 80.7491C64.9789 84.3155 64.7412 93.1534 70.7236 97.047L101.134 116.839C104.12 118.783 107.939 118.905 111.043 117.156L207.785 62.7697L304.336 117.156C307.44 118.905 311.259 118.783 314.245 116.839L344.655 97.047C350.638 93.1534 350.4 84.3155 344.217 80.7491Z" stroke="#494949" stroke-width="3.06"/>
                  <defs>
                  <radialGradient id="paint0_radial_603_13" cx="0" cy="0" r="1" gradientUnits="userSpaceOnUse" gradientTransform="translate(190.429 72.4766) rotate(24.6951) scale(448.158 541.593)">
                  <stop stop-color="#EF7846"/>
                  <stop offset="0.625" stop-color="#CE2D00"/>
                  </radialGradient>
                  <radialGradient id="paint1_radial_603_13" cx="0" cy="0" r="1" gradientUnits="userSpaceOnUse" gradientTransform="translate(190.429 72.4766) rotate(24.6951) scale(448.158 541.593)">
                  <stop stop-color="#EF7846"/>
                  <stop offset="0.625" stop-color="#CE2D00"/>
                  </radialGradient>
                  <linearGradient id="paint2_linear_603_13" x1="207.689" y1="2" x2="207.689" y2="118.387" gradientUnits="userSpaceOnUse">
                  <stop offset="0.265572" stop-color="#1C1C1C"/>
                  <stop offset="1" stop-color="#6E6A6A"/>
                  </linearGradient>
                  </defs>
                  </svg>