<svg width="460" height="368" viewBox="0 0 460 368" fill="none" xmlns="http://www.w3.org/2000/svg">
<g clip-path="url(#clip0_1_52)">
<path d="M450 0H10C4.47715 0 0 4.47715 0 10V358C0 363.523 4.47715 368 10 368H450C455.523 368 460 363.523 460 358V10C460 4.47715 455.523 0 450 0Z" fill="#16181D"/>
<path d="M57.8203 84V74.1357H61.8945C64.1094 74.1357 65.4219 75.3115 65.4219 77.2939V77.3076C65.4219 78.6064 64.7314 79.6865 63.6377 80.1172L65.7158 84H63.3779L61.5391 80.4248H59.8848V84H57.8203ZM59.8848 78.8594H61.6689C62.6943 78.8594 63.3096 78.2783 63.3096 77.3076V77.2939C63.3096 76.3506 62.6602 75.749 61.6416 75.749H59.8848V78.8594ZM66.7891 84V74.1357H73.3242V75.8379H68.8535V78.2031H73.0713V79.8164H68.8535V82.2979H73.3242V84H66.7891ZM74.1855 84L77.6309 74.1357H80.0576L83.4961 84H81.3291L80.584 81.6074H77.0977L76.3525 84H74.1855ZM78.8203 76.0498L77.5762 80.0625H80.1055L78.8613 76.0498H78.8203ZM84.5078 84V74.1357H88.2744C91.2275 74.1357 92.9775 75.8926 92.9775 79.0166V79.0303C92.9775 82.1611 91.2344 84 88.2744 84H84.5078ZM86.5723 82.291H88.0283C89.874 82.291 90.8721 81.1699 90.8721 79.0371V79.0234C90.8721 76.9658 89.8398 75.8379 88.0283 75.8379H86.5723V82.291ZM96.5254 84V80.3154L93.0938 74.1357H95.3223L97.5371 78.3467H97.585L99.793 74.1357H102.028L98.5898 80.3154V84H96.5254ZM60.1787 101V92.8379H57.3281V91.1357H65.1006V92.8379H62.2432V101H60.1787ZM70.1455 101.171C67.2129 101.171 65.3877 99.209 65.3877 96.0713V96.0576C65.3877 92.9199 67.2266 90.9648 70.1455 90.9648C73.0713 90.9648 74.9033 92.9268 74.9033 96.0576V96.0713C74.9033 99.209 73.0781 101.171 70.1455 101.171ZM70.1455 99.4209C71.7861 99.4209 72.7979 98.1152 72.7979 96.0713V96.0576C72.7979 94 71.7656 92.7148 70.1455 92.7148C68.5322 92.7148 67.4932 93.9932 67.4932 96.0576V96.0713C67.4932 98.1357 68.5254 99.4209 70.1455 99.4209ZM83.1475 101.171C80.6182 101.171 79.0117 99.708 79.0117 97.5137V91.1357H81.0762V97.3291C81.0762 98.6074 81.8213 99.4209 83.1475 99.4209C84.4736 99.4209 85.2119 98.6074 85.2119 97.3291V91.1357H87.2764V97.5137C87.2764 99.7012 85.6904 101.171 83.1475 101.171ZM92.5264 101.171C90.1816 101.171 88.6709 100.098 88.5547 98.2793L88.5479 98.1699H90.4961L90.5098 98.2451C90.6396 99.0107 91.4531 99.4893 92.5811 99.4893C93.7227 99.4893 94.4404 98.9902 94.4404 98.2383V98.2314C94.4404 97.5615 93.9551 97.2266 92.7314 96.9736L91.6924 96.7686C89.7441 96.3789 88.7598 95.4492 88.7598 93.9658V93.959C88.7598 92.1543 90.332 90.9648 92.5195 90.9648C94.8027 90.9648 96.2041 92.1064 96.2998 93.8359L96.3066 93.9658H94.3584L94.3516 93.8838C94.249 93.1113 93.5381 92.6396 92.5195 92.6396C91.46 92.6465 90.8242 93.1318 90.8242 93.8359V93.8428C90.8242 94.4648 91.3301 94.8271 92.4648 95.0527L93.5107 95.2646C95.5752 95.6748 96.5049 96.5156 96.5049 98.0674V98.0742C96.5049 99.9678 95.0146 101.171 92.5264 101.171ZM97.7695 101V91.1357H104.305V92.8379H99.834V95.2031H104.052V96.8164H99.834V99.2979H104.305V101H97.7695ZM112.173 101.171C109.828 101.171 108.317 100.098 108.201 98.2793L108.194 98.1699H110.143L110.156 98.2451C110.286 99.0107 111.1 99.4893 112.228 99.4893C113.369 99.4893 114.087 98.9902 114.087 98.2383V98.2314C114.087 97.5615 113.602 97.2266 112.378 96.9736L111.339 96.7686C109.391 96.3789 108.406 95.4492 108.406 93.9658V93.959C108.406 92.1543 109.979 90.9648 112.166 90.9648C114.449 90.9648 115.851 92.1064 115.946 93.8359L115.953 93.9658H114.005L113.998 93.8838C113.896 93.1113 113.185 92.6396 112.166 92.6396C111.106 92.6465 110.471 93.1318 110.471 93.8359V93.8428C110.471 94.4648 110.977 94.8271 112.111 95.0527L113.157 95.2646C115.222 95.6748 116.151 96.5156 116.151 98.0674V98.0742C116.151 99.9678 114.661 101.171 112.173 101.171ZM117.416 101V91.1357H123.951V92.8379H119.48V95.2031H123.698V96.8164H119.48V99.2979H123.951V101H117.416ZM129.83 101.171C126.945 101.171 125.134 99.2432 125.134 96.0645V96.0576C125.134 92.8789 126.952 90.9648 129.83 90.9648C132.223 90.9648 133.938 92.4756 134.13 94.5674L134.137 94.6289H132.127L132.1 94.5127C131.867 93.4258 131.061 92.7148 129.83 92.7148C128.251 92.7148 127.239 93.9863 127.239 96.0508V96.0576C127.239 98.1357 128.251 99.4209 129.83 99.4209C131.02 99.4209 131.854 98.7373 132.12 97.5684L132.134 97.5H134.144L134.137 97.5752C133.945 99.6738 132.216 101.171 129.83 101.171ZM137.466 101V92.8379H134.615V91.1357H142.388V92.8379H139.53V101H137.466ZM143.529 101V91.1357H145.594V101H143.529ZM151.685 101.171C148.752 101.171 146.927 99.209 146.927 96.0713V96.0576C146.927 92.9199 148.766 90.9648 151.685 90.9648C154.61 90.9648 156.442 92.9268 156.442 96.0576V96.0713C156.442 99.209 154.617 101.171 151.685 101.171ZM151.685 99.4209C153.325 99.4209 154.337 98.1152 154.337 96.0713V96.0576C154.337 94 153.305 92.7148 151.685 92.7148C150.071 92.7148 149.032 93.9932 149.032 96.0576V96.0713C149.032 98.1357 150.064 99.4209 151.685 99.4209ZM157.775 101V91.1357H159.58L164.037 97.5479H164.078V91.1357H166.136V101H164.345L159.874 94.54H159.833V101H157.775Z" fill="white"/>
<path d="M41 119L41 60H38V119H41Z" fill="url(#paint0_linear_1_52)"/>
<path d="M419 227H46C40.4772 227 36 231.477 36 237V319C36 324.523 40.4772 329 46 329H419C424.523 329 429 324.523 429 319V237C429 231.477 424.523 227 419 227Z" fill="black" fill-opacity="0.21"/>
<path d="M419 227.5H46C40.7533 227.5 36.5 231.753 36.5 237V319C36.5 324.247 40.7533 328.5 46 328.5H419C424.247 328.5 428.5 324.247 428.5 319V237C428.5 231.753 424.247 227.5 419 227.5Z" stroke="white" stroke-opacity="0.08"/>
<path d="M59.875 298L75.625 252.906H86.7188L102.438 298H92.5312L89.125 287.062H73.1875L69.7812 298H59.875ZM81.0625 261.656L75.375 280H86.9375L81.25 261.656H81.0625Z" fill="#8AF188"/>
<path d="M140.586 257V249.954H143.418C144.902 249.954 145.894 250.911 145.894 252.361V252.371C145.894 253.821 144.902 254.778 143.418 254.778H142.061V257H140.586ZM143.057 251.121H142.061V253.626H143.057C143.901 253.626 144.399 253.177 144.399 252.376V252.366C144.399 251.565 143.901 251.121 143.057 251.121ZM146.768 257V249.954H151.436V251.17H148.242V252.859H151.255V254.012H148.242V255.784H151.436V257H146.768ZM152.5 257V249.954H155.41C156.992 249.954 157.93 250.794 157.93 252.21V252.22C157.93 253.147 157.437 253.919 156.655 254.227L158.14 257H156.47L155.156 254.446H153.975V257H152.5ZM153.975 253.328H155.249C155.981 253.328 156.421 252.913 156.421 252.22V252.21C156.421 251.536 155.957 251.106 155.229 251.106H153.975V253.328ZM158.906 257V249.954H163.521V251.17H160.381V253.06H163.247V254.227H160.381V257H158.906ZM167.573 257.122C165.479 257.122 164.175 255.721 164.175 253.479V253.47C164.175 251.229 165.488 249.832 167.573 249.832C169.663 249.832 170.972 251.233 170.972 253.47V253.479C170.972 255.721 169.668 257.122 167.573 257.122ZM167.573 255.872C168.745 255.872 169.468 254.939 169.468 253.479V253.47C169.468 252 168.73 251.082 167.573 251.082C166.421 251.082 165.679 251.995 165.679 253.47V253.479C165.679 254.954 166.416 255.872 167.573 255.872ZM171.924 257V249.954H174.834C176.416 249.954 177.354 250.794 177.354 252.21V252.22C177.354 253.147 176.86 253.919 176.079 254.227L177.563 257H175.894L174.58 254.446H173.398V257H171.924ZM173.398 253.328H174.673C175.405 253.328 175.845 252.913 175.845 252.22V252.21C175.845 251.536 175.381 251.106 174.653 251.106H173.398V253.328ZM178.33 257V249.954H180.034L182.036 255.018H182.065L184.067 249.954H185.771V257H184.458V252.234H184.414L182.515 257H181.587L179.683 252.234H179.644V257H178.33ZM186.494 257L188.955 249.954H190.688L193.145 257H191.597L191.064 255.291H188.574L188.042 257H186.494ZM189.805 251.321L188.916 254.188H190.723L189.834 251.321H189.805ZM193.867 257V249.954H195.156L198.34 254.534H198.369V249.954H199.839V257H198.56L195.366 252.386H195.337V257H193.867ZM204.15 257.122C202.09 257.122 200.796 255.745 200.796 253.475V253.47C200.796 251.199 202.095 249.832 204.15 249.832C205.859 249.832 207.085 250.911 207.222 252.405L207.227 252.449H205.791L205.771 252.366C205.605 251.59 205.029 251.082 204.15 251.082C203.022 251.082 202.3 251.99 202.3 253.465V253.47C202.3 254.954 203.022 255.872 204.15 255.872C205 255.872 205.596 255.384 205.786 254.549L205.796 254.5H207.231L207.227 254.554C207.09 256.053 205.854 257.122 204.15 257.122ZM208.145 257V249.954H212.812V251.17H209.619V252.859H212.632V254.012H209.619V255.784H212.812V257H208.145Z" fill="white"/>
<path d="M301.159 257.122C299.484 257.122 298.405 256.355 298.322 255.057L298.317 254.979H299.709L299.719 255.032C299.812 255.579 300.393 255.921 301.198 255.921C302.014 255.921 302.526 255.564 302.526 255.027V255.022C302.526 254.544 302.18 254.305 301.306 254.124L300.563 253.978C299.172 253.699 298.469 253.035 298.469 251.976V251.971C298.469 250.682 299.592 249.832 301.154 249.832C302.785 249.832 303.786 250.647 303.854 251.883L303.859 251.976H302.468L302.463 251.917C302.39 251.365 301.882 251.028 301.154 251.028C300.397 251.033 299.943 251.38 299.943 251.883V251.888C299.943 252.332 300.305 252.591 301.115 252.752L301.862 252.903C303.337 253.196 304.001 253.797 304.001 254.905V254.91C304.001 256.263 302.937 257.122 301.159 257.122ZM306.394 257V251.17H304.357V249.954H309.909V251.17H307.868V257H306.394ZM310.725 257V249.954H313.635C315.217 249.954 316.154 250.794 316.154 252.21V252.22C316.154 253.147 315.661 253.919 314.88 254.227L316.364 257H314.694L313.381 254.446H312.199V257H310.725ZM312.199 253.328H313.474C314.206 253.328 314.646 252.913 314.646 252.22V252.21C314.646 251.536 314.182 251.106 313.454 251.106H312.199V253.328ZM320.085 257.122C318.278 257.122 317.131 256.077 317.131 254.51V249.954H318.605V254.378C318.605 255.291 319.138 255.872 320.085 255.872C321.032 255.872 321.56 255.291 321.56 254.378V249.954H323.034V254.51C323.034 256.072 321.901 257.122 320.085 257.122ZM327.346 257.122C325.285 257.122 323.991 255.745 323.991 253.475V253.47C323.991 251.199 325.29 249.832 327.346 249.832C329.055 249.832 330.28 250.911 330.417 252.405L330.422 252.449H328.986L328.967 252.366C328.801 251.59 328.225 251.082 327.346 251.082C326.218 251.082 325.495 251.99 325.495 253.465V253.47C325.495 254.954 326.218 255.872 327.346 255.872C328.195 255.872 328.791 255.384 328.981 254.549L328.991 254.5H330.427L330.422 254.554C330.285 256.053 329.05 257.122 327.346 257.122ZM332.8 257V251.17H330.764V249.954H336.315V251.17H334.274V257H332.8ZM340.085 257.122C338.278 257.122 337.131 256.077 337.131 254.51V249.954H338.605V254.378C338.605 255.291 339.138 255.872 340.085 255.872C341.032 255.872 341.56 255.291 341.56 254.378V249.954H343.034V254.51C343.034 256.072 341.901 257.122 340.085 257.122ZM344.211 257V249.954H347.121C348.703 249.954 349.641 250.794 349.641 252.21V252.22C349.641 253.147 349.147 253.919 348.366 254.227L349.851 257H348.181L346.867 254.446H345.686V257H344.211ZM345.686 253.328H346.96C347.692 253.328 348.132 252.913 348.132 252.22V252.21C348.132 251.536 347.668 251.106 346.94 251.106H345.686V253.328ZM350.617 257V249.954H355.285V251.17H352.092V252.859H355.104V254.012H352.092V255.784H355.285V257H350.617Z" fill="white"/>
<path d="M163.301 282.723V288.367L142.598 295.613V290.613L158.184 285.594L142.598 280.594V275.477L163.301 282.723ZM178.633 268.328C185.43 268.328 190.391 273.094 190.391 282.645V282.684C190.391 291.922 185.918 297.488 178.574 297.488C173.125 297.488 169.023 294.324 168.184 289.969L168.145 289.793H173.965L174.023 289.949C174.727 291.648 176.289 292.801 178.594 292.801C182.715 292.801 184.512 288.875 184.727 283.895C184.746 283.523 184.766 283.133 184.746 282.82H184.648C183.535 285.438 180.762 287.352 176.953 287.352C171.504 287.352 167.773 283.504 167.773 278.211V278.172C167.773 272.41 172.363 268.328 178.633 268.328ZM178.652 282.996C181.602 282.996 183.867 280.945 183.867 278.074V278.055C183.867 275.203 181.602 273.016 178.711 273.016C175.84 273.016 173.516 275.184 173.516 277.977V278.016C173.516 280.945 175.723 282.996 178.652 282.996ZM205.117 297.488C197.969 297.488 193.633 291.883 193.633 282.918V282.879C193.633 273.914 197.969 268.328 205.117 268.328C212.266 268.328 216.602 273.914 216.602 282.879V282.918C216.602 291.883 212.266 297.488 205.117 297.488ZM205.117 292.762C208.633 292.762 210.645 289.109 210.645 282.918V282.879C210.645 276.688 208.633 273.055 205.117 273.055C201.602 273.055 199.59 276.688 199.59 282.879V282.918C199.59 289.109 201.602 292.762 205.117 292.762ZM226.426 283.328C222.363 283.328 219.883 280.496 219.883 275.945V275.926C219.883 271.395 222.363 268.562 226.426 268.562C230.469 268.562 232.949 271.395 232.949 275.926V275.945C232.949 280.496 230.469 283.328 226.426 283.328ZM229.336 297H224.98L242.793 268.816H247.129L229.336 297ZM226.426 280.086C227.988 280.086 228.848 278.621 228.848 275.945V275.926C228.848 273.27 227.988 271.805 226.426 271.805C224.844 271.805 223.965 273.27 223.965 275.926V275.945C223.965 278.621 224.844 280.086 226.426 280.086ZM245.703 297.254C241.641 297.254 239.16 294.422 239.16 289.871V289.852C239.16 285.32 241.641 282.488 245.703 282.488C249.746 282.488 252.227 285.32 252.227 289.852V289.871C252.227 294.422 249.746 297.254 245.703 297.254ZM245.703 294.012C247.266 294.012 248.125 292.547 248.125 289.871V289.852C248.125 287.195 247.266 285.73 245.703 285.73C244.121 285.73 243.242 287.195 243.242 289.852V289.871C243.242 292.547 244.121 294.012 245.703 294.012Z" fill="#8AF188"/>
<path d="M301.652 279.285V273.621L320.266 283.484V287.898L301.652 297.43V291.746L314.465 285.73V285.535L301.652 279.285ZM336.945 297.625C330.109 297.625 325.52 294.246 325.52 289.363C325.52 285.652 328.215 282.781 332.141 282.137V282.02C328.859 281.258 326.652 278.738 326.652 275.633C326.652 271.336 330.91 268.191 336.945 268.191C343 268.191 347.219 271.316 347.219 275.652C347.219 278.719 345.031 281.238 341.75 282.02V282.137C345.695 282.801 348.371 285.672 348.371 289.383C348.371 294.266 343.723 297.625 336.945 297.625ZM336.945 293.328C340.051 293.328 342.199 291.473 342.199 288.934C342.199 286.395 340.051 284.539 336.945 284.539C333.84 284.539 331.672 286.395 331.672 288.934C331.672 291.473 333.84 293.328 336.945 293.328ZM336.945 280.242C339.543 280.242 341.398 278.602 341.398 276.355C341.398 274.09 339.543 272.449 336.945 272.449C334.328 272.449 332.492 274.109 332.492 276.355C332.492 278.602 334.328 280.242 336.945 280.242ZM362.902 297.625C355.812 297.625 351.496 291.98 351.496 282.859C351.496 273.758 355.852 268.172 362.902 268.172C369.953 268.172 374.289 273.738 374.289 282.84C374.289 291.941 369.992 297.625 362.902 297.625ZM362.902 292.898C366.262 292.898 368.293 289.285 368.293 282.859C368.293 276.492 366.242 272.898 362.902 272.898C359.582 272.898 357.492 276.512 357.492 282.859C357.492 289.266 359.543 292.898 362.902 292.898ZM389.66 275.574C389.66 280.066 387.18 282.879 383.234 282.879C379.309 282.879 376.809 280.066 376.809 275.574C376.809 271.102 379.309 268.27 383.234 268.27C387.18 268.27 389.66 271.102 389.66 275.574ZM383.234 279.422C384.504 279.422 385.285 277.977 385.285 275.555C385.285 273.133 384.504 271.668 383.234 271.668C381.965 271.668 381.184 273.133 381.184 275.555C381.184 277.977 381.965 279.422 383.234 279.422ZM384.328 297H379.602L390.539 282.02L400.168 268.816H404.875L394.25 283.387L384.328 297ZM407.668 290.086C407.668 294.578 405.188 297.41 401.242 297.41C397.316 297.41 394.816 294.578 394.816 290.086C394.816 285.613 397.316 282.781 401.242 282.781C405.188 282.781 407.668 285.613 407.668 290.086ZM401.242 293.934C402.512 293.934 403.293 292.488 403.293 290.066C403.293 287.645 402.512 286.18 401.242 286.18C399.973 286.18 399.191 287.645 399.191 290.066C399.191 292.488 399.973 293.934 401.242 293.934Z" fill="#8AF188"/>
<path opacity="0.2" d="M271.5 242V310" stroke="white"/>
<path opacity="0.2" d="M122.5 242V310" stroke="white"/>
<path d="M299.415 84.2631V107.602C331.623 107.602 357.763 133.742 357.763 165.95H381.102C381.102 120.847 344.518 84.2631 299.415 84.2631Z" fill="url(#paint1_linear_1_52)"/>
<path d="M299.415 37.5847V60.924C357.413 60.924 404.441 107.952 404.441 165.95H427.781C427.78 95.0572 370.308 37.5847 299.415 37.5847Z" fill="url(#paint2_linear_1_52)"/>
<path d="M326.931 142.809C324.133 145.179 319.944 144.833 317.574 142.035C315.203 139.237 315.55 135.048 318.348 132.677C321.145 130.307 364.83 102 364.83 102C364.83 102 329.729 140.439 326.931 142.809Z" fill="white"/>
<path d="M325.214 140.783C323.536 142.205 321.022 141.997 319.6 140.318C318.178 138.64 318.386 136.126 320.064 134.704C321.743 133.282 324.257 133.49 325.679 135.168C327.101 136.847 326.893 139.36 325.214 140.783Z" fill="#1A1A1A"/>
<path d="M53.3182 149.273C53.3182 151.153 52.9659 152.764 52.2614 154.105C51.5625 155.44 50.608 156.463 49.3977 157.173C48.1932 157.884 46.8267 158.239 45.2983 158.239C43.7699 158.239 42.4006 157.884 41.1903 157.173C39.9858 156.457 39.0313 155.432 38.3267 154.097C37.6278 152.756 37.2784 151.148 37.2784 149.273C37.2784 147.392 37.6278 145.784 38.3267 144.449C39.0313 143.108 39.9858 142.082 41.1903 141.372C42.4006 140.662 43.7699 140.307 45.2983 140.307C46.8267 140.307 48.1932 140.662 49.3977 141.372C50.608 142.082 51.5625 143.108 52.2614 144.449C52.9659 145.784 53.3182 147.392 53.3182 149.273ZM50.1392 149.273C50.1392 147.949 49.9318 146.832 49.517 145.923C49.108 145.009 48.5398 144.318 47.8125 143.852C47.0852 143.381 46.2472 143.145 45.2983 143.145C44.3494 143.145 43.5114 143.381 42.7841 143.852C42.0568 144.318 41.4858 145.009 41.071 145.923C40.6619 146.832 40.4574 147.949 40.4574 149.273C40.4574 150.597 40.6619 151.716 41.071 152.631C41.4858 153.54 42.0568 154.23 42.7841 154.702C43.5114 155.168 44.3494 155.401 45.2983 155.401C46.2472 155.401 47.0852 155.168 47.8125 154.702C48.5398 154.23 49.108 153.54 49.517 152.631C49.9318 151.716 50.1392 150.597 50.1392 149.273ZM56.1712 162.909V144.909H59.2053V147.074H59.3842C59.5433 146.756 59.7678 146.418 60.0575 146.06C60.3473 145.696 60.7393 145.386 61.2337 145.131C61.728 144.869 62.3587 144.739 63.1257 144.739C64.1371 144.739 65.049 144.997 65.8615 145.514C66.6797 146.026 67.3274 146.784 67.8047 147.79C68.2876 148.79 68.5291 150.017 68.5291 151.472C68.5291 152.909 68.2933 154.131 67.8217 155.136C67.3501 156.142 66.7081 156.909 65.8956 157.438C65.0831 157.966 64.1626 158.23 63.1342 158.23C62.3842 158.23 61.7621 158.105 61.2678 157.855C60.7734 157.605 60.3757 157.304 60.0746 156.952C59.7791 156.594 59.549 156.256 59.3842 155.938H59.2564V162.909H56.1712ZM59.1967 151.455C59.1967 152.301 59.3161 153.043 59.5547 153.679C59.799 154.315 60.1484 154.812 60.603 155.17C61.0632 155.523 61.62 155.699 62.2734 155.699C62.9553 155.699 63.5263 155.517 63.9865 155.153C64.4467 154.784 64.7933 154.281 65.0263 153.645C65.2649 153.003 65.3842 152.273 65.3842 151.455C65.3842 150.642 65.2678 149.92 65.0348 149.29C64.8018 148.659 64.4553 148.165 63.995 147.807C63.5348 147.449 62.9609 147.27 62.2734 147.27C61.6143 147.27 61.0547 147.443 60.5945 147.79C60.1342 148.136 59.7848 148.622 59.5462 149.247C59.3132 149.872 59.1967 150.608 59.1967 151.455ZM77.7081 144.909V147.295H70.1825V144.909H77.7081ZM72.0405 141.773H75.1257V154.062C75.1257 154.477 75.1882 154.795 75.3132 155.017C75.4439 155.233 75.6143 155.381 75.8246 155.46C76.0348 155.54 76.2678 155.58 76.5234 155.58C76.7166 155.58 76.8928 155.565 77.0518 155.537C77.2166 155.509 77.3416 155.483 77.4268 155.46L77.9467 157.872C77.782 157.929 77.5462 157.991 77.2393 158.06C76.9382 158.128 76.5689 158.168 76.1314 158.179C75.3587 158.202 74.6626 158.085 74.0433 157.83C73.424 157.568 72.9325 157.165 72.5689 156.619C72.2109 156.074 72.0348 155.392 72.0405 154.574V141.773ZM80.2884 158V144.909H83.3736V158H80.2884ZM81.8395 143.051C81.3509 143.051 80.9304 142.889 80.5781 142.565C80.2259 142.236 80.0497 141.841 80.0497 141.381C80.0497 140.915 80.2259 140.52 80.5781 140.196C80.9304 139.866 81.3509 139.702 81.8395 139.702C82.3338 139.702 82.7543 139.866 83.1009 140.196C83.4531 140.52 83.6293 140.915 83.6293 141.381C83.6293 141.841 83.4531 142.236 83.1009 142.565C82.7543 142.889 82.3338 143.051 81.8395 143.051ZM86.5462 158V144.909H89.495V147.134H89.6484C89.9212 146.384 90.3729 145.798 91.0036 145.378C91.6342 144.952 92.3871 144.739 93.2621 144.739C94.1484 144.739 94.8956 144.955 95.5036 145.386C96.1172 145.812 96.549 146.395 96.799 147.134H96.9354C97.2251 146.406 97.7138 145.827 98.4013 145.395C99.0945 144.957 99.9155 144.739 100.864 144.739C102.069 144.739 103.052 145.119 103.813 145.881C104.575 146.642 104.955 147.753 104.955 149.213V158H101.862V149.69C101.862 148.878 101.646 148.284 101.214 147.909C100.782 147.528 100.254 147.338 99.6286 147.338C98.8842 147.338 98.3018 147.571 97.8814 148.037C97.4666 148.497 97.2592 149.097 97.2592 149.835V158H94.2337V149.562C94.2337 148.886 94.0291 148.347 93.62 147.943C93.2166 147.54 92.6882 147.338 92.0348 147.338C91.5916 147.338 91.1882 147.452 90.8246 147.679C90.4609 147.901 90.1712 148.216 89.9553 148.625C89.7393 149.028 89.6314 149.5 89.6314 150.04V158H86.5462ZM108.085 158V144.909H111.17V158H108.085ZM109.636 143.051C109.148 143.051 108.727 142.889 108.375 142.565C108.023 142.236 107.847 141.841 107.847 141.381C107.847 140.915 108.023 140.52 108.375 140.196C108.727 139.866 109.148 139.702 109.636 139.702C110.131 139.702 110.551 139.866 110.898 140.196C111.25 140.52 111.426 140.915 111.426 141.381C111.426 141.841 111.25 142.236 110.898 142.565C110.551 142.889 110.131 143.051 109.636 143.051ZM114.173 158V156.04L120.923 147.577V147.466H114.394V144.909H124.698V147.014L118.272 155.332V155.443H124.92V158H114.173ZM133.24 158.256C131.928 158.256 130.794 157.983 129.839 157.438C128.891 156.886 128.161 156.108 127.649 155.102C127.138 154.091 126.882 152.901 126.882 151.531C126.882 150.185 127.138 149.003 127.649 147.986C128.166 146.963 128.888 146.168 129.814 145.599C130.74 145.026 131.828 144.739 133.078 144.739C133.885 144.739 134.646 144.869 135.362 145.131C136.084 145.386 136.72 145.784 137.271 146.324C137.828 146.864 138.266 147.551 138.584 148.386C138.902 149.216 139.061 150.205 139.061 151.352V152.298H128.331V150.219H136.104C136.098 149.628 135.97 149.102 135.72 148.642C135.47 148.176 135.121 147.81 134.672 147.543C134.229 147.276 133.712 147.142 133.121 147.142C132.49 147.142 131.936 147.295 131.459 147.602C130.982 147.903 130.609 148.301 130.342 148.795C130.081 149.284 129.947 149.821 129.942 150.406V152.222C129.942 152.983 130.081 153.636 130.359 154.182C130.638 154.722 131.027 155.136 131.527 155.426C132.027 155.71 132.612 155.852 133.283 155.852C133.732 155.852 134.138 155.79 134.501 155.665C134.865 155.534 135.18 155.344 135.447 155.094C135.714 154.844 135.916 154.534 136.053 154.165L138.933 154.489C138.751 155.25 138.405 155.915 137.893 156.483C137.388 157.045 136.74 157.483 135.95 157.795C135.161 158.102 134.257 158.256 133.24 158.256ZM146.529 158.23C145.501 158.23 144.58 157.966 143.768 157.438C142.955 156.909 142.313 156.142 141.842 155.136C141.37 154.131 141.134 152.909 141.134 151.472C141.134 150.017 141.373 148.79 141.85 147.79C142.333 146.784 142.984 146.026 143.802 145.514C144.62 144.997 145.532 144.739 146.538 144.739C147.305 144.739 147.935 144.869 148.43 145.131C148.924 145.386 149.316 145.696 149.606 146.06C149.896 146.418 150.12 146.756 150.279 147.074H150.407V140.545H153.501V158H150.467V155.938H150.279C150.12 156.256 149.89 156.594 149.589 156.952C149.288 157.304 148.89 157.605 148.396 157.855C147.901 158.105 147.279 158.23 146.529 158.23ZM147.39 155.699C148.043 155.699 148.6 155.523 149.06 155.17C149.521 154.812 149.87 154.315 150.109 153.679C150.347 153.043 150.467 152.301 150.467 151.455C150.467 150.608 150.347 149.872 150.109 149.247C149.876 148.622 149.529 148.136 149.069 147.79C148.614 147.443 148.055 147.27 147.39 147.27C146.702 147.27 146.129 147.449 145.668 147.807C145.208 148.165 144.862 148.659 144.629 149.29C144.396 149.92 144.279 150.642 144.279 151.455C144.279 152.273 144.396 153.003 144.629 153.645C144.867 154.281 145.217 154.784 145.677 155.153C146.143 155.517 146.714 155.699 147.39 155.699ZM171.477 162.909V155.938H171.349C171.19 156.256 170.96 156.594 170.659 156.952C170.358 157.304 169.96 157.605 169.466 157.855C168.972 158.105 168.349 158.23 167.599 158.23C166.571 158.23 165.651 157.966 164.838 157.438C164.026 156.909 163.384 156.142 162.912 155.136C162.44 154.131 162.205 152.909 162.205 151.472C162.205 150.017 162.443 148.79 162.92 147.79C163.403 146.784 164.054 146.026 164.872 145.514C165.69 144.997 166.602 144.739 167.608 144.739C168.375 144.739 169.006 144.869 169.5 145.131C169.994 145.386 170.386 145.696 170.676 146.06C170.966 146.418 171.19 146.756 171.349 147.074H171.537V144.909H174.571V162.909H171.477ZM168.46 155.699C169.114 155.699 169.67 155.523 170.131 155.17C170.591 154.812 170.94 154.315 171.179 153.679C171.418 153.043 171.537 152.301 171.537 151.455C171.537 150.608 171.418 149.872 171.179 149.247C170.946 148.622 170.599 148.136 170.139 147.79C169.685 147.443 169.125 147.27 168.46 147.27C167.773 147.27 167.199 147.449 166.739 147.807C166.278 148.165 165.932 148.659 165.699 149.29C165.466 149.92 165.349 150.642 165.349 151.455C165.349 152.273 165.466 153.003 165.699 153.645C165.938 154.281 166.287 154.784 166.747 155.153C167.213 155.517 167.784 155.699 168.46 155.699ZM186.085 152.494V144.909H189.17V158H186.179V155.673H186.043C185.747 156.406 185.261 157.006 184.585 157.472C183.915 157.937 183.088 158.17 182.105 158.17C181.247 158.17 180.489 157.98 179.83 157.599C179.176 157.213 178.665 156.653 178.295 155.92C177.926 155.182 177.741 154.29 177.741 153.244V144.909H180.827V152.767C180.827 153.597 181.054 154.256 181.509 154.744C181.963 155.233 182.56 155.477 183.298 155.477C183.753 155.477 184.193 155.366 184.619 155.145C185.045 154.923 185.395 154.594 185.668 154.156C185.946 153.713 186.085 153.159 186.085 152.494ZM196.11 158.264C195.281 158.264 194.533 158.116 193.869 157.821C193.21 157.52 192.687 157.077 192.3 156.491C191.92 155.906 191.729 155.185 191.729 154.327C191.729 153.588 191.866 152.977 192.138 152.494C192.411 152.011 192.783 151.625 193.255 151.335C193.727 151.045 194.258 150.827 194.849 150.679C195.445 150.526 196.062 150.415 196.698 150.347C197.465 150.267 198.087 150.196 198.565 150.134C199.042 150.065 199.388 149.963 199.604 149.827C199.826 149.685 199.937 149.466 199.937 149.17V149.119C199.937 148.477 199.746 147.98 199.366 147.628C198.985 147.276 198.437 147.099 197.721 147.099C196.965 147.099 196.366 147.264 195.923 147.594C195.485 147.923 195.19 148.312 195.036 148.761L192.156 148.352C192.383 147.557 192.758 146.892 193.281 146.358C193.803 145.818 194.442 145.415 195.198 145.148C195.954 144.875 196.789 144.739 197.704 144.739C198.335 144.739 198.962 144.812 199.587 144.96C200.212 145.108 200.783 145.352 201.3 145.693C201.817 146.028 202.232 146.486 202.545 147.065C202.863 147.645 203.022 148.369 203.022 149.239V158H200.056V156.202H199.954C199.766 156.565 199.502 156.906 199.161 157.224C198.826 157.537 198.403 157.79 197.891 157.983C197.386 158.17 196.792 158.264 196.11 158.264ZM196.911 155.997C197.531 155.997 198.067 155.875 198.522 155.631C198.977 155.381 199.326 155.051 199.57 154.642C199.82 154.233 199.945 153.787 199.945 153.304V151.761C199.849 151.841 199.684 151.915 199.451 151.983C199.224 152.051 198.968 152.111 198.684 152.162C198.4 152.213 198.119 152.259 197.84 152.298C197.562 152.338 197.32 152.372 197.116 152.401C196.656 152.463 196.244 152.565 195.88 152.707C195.516 152.849 195.229 153.048 195.019 153.304C194.809 153.554 194.704 153.878 194.704 154.276C194.704 154.844 194.911 155.273 195.326 155.562C195.741 155.852 196.269 155.997 196.911 155.997ZM209.21 140.545V158H206.124V140.545H209.21ZM212.382 158V144.909H215.467V158H212.382ZM213.933 143.051C213.445 143.051 213.024 142.889 212.672 142.565C212.32 142.236 212.143 141.841 212.143 141.381C212.143 140.915 212.32 140.52 212.672 140.196C213.024 139.866 213.445 139.702 213.933 139.702C214.428 139.702 214.848 139.866 215.195 140.196C215.547 140.52 215.723 140.915 215.723 141.381C215.723 141.841 215.547 142.236 215.195 142.565C214.848 142.889 214.428 143.051 213.933 143.051ZM225.177 144.909V147.295H217.651V144.909H225.177ZM219.509 141.773H222.594V154.062C222.594 154.477 222.657 154.795 222.782 155.017C222.913 155.233 223.083 155.381 223.293 155.46C223.504 155.54 223.737 155.58 223.992 155.58C224.185 155.58 224.362 155.565 224.521 155.537C224.685 155.509 224.81 155.483 224.896 155.46L225.415 157.872C225.251 157.929 225.015 157.991 224.708 158.06C224.407 158.128 224.038 158.168 223.6 158.179C222.827 158.202 222.131 158.085 221.512 157.83C220.893 157.568 220.401 157.165 220.038 156.619C219.68 156.074 219.504 155.392 219.509 154.574V141.773ZM229.675 162.909C229.254 162.909 228.865 162.875 228.507 162.807C228.155 162.744 227.874 162.67 227.663 162.585L228.379 160.182C228.828 160.313 229.229 160.375 229.581 160.369C229.933 160.364 230.243 160.253 230.51 160.037C230.783 159.827 231.013 159.474 231.2 158.98L231.464 158.273L226.717 144.909H229.99L233.007 154.795H233.143L236.169 144.909H239.45L234.209 159.585C233.964 160.278 233.641 160.872 233.237 161.366C232.834 161.866 232.339 162.247 231.754 162.509C231.175 162.776 230.482 162.909 229.675 162.909ZM41.3523 187.264C40.5227 187.264 39.7756 187.116 39.1108 186.821C38.4517 186.52 37.929 186.077 37.5426 185.491C37.1619 184.906 36.9716 184.185 36.9716 183.327C36.9716 182.588 37.108 181.977 37.3807 181.494C37.6534 181.011 38.0256 180.625 38.4972 180.335C38.9688 180.045 39.5 179.827 40.0909 179.679C40.6875 179.526 41.304 179.415 41.9403 179.347C42.7074 179.267 43.3295 179.196 43.8068 179.134C44.2841 179.065 44.6307 178.963 44.8466 178.827C45.0682 178.685 45.179 178.466 45.179 178.17V178.119C45.179 177.477 44.9886 176.98 44.608 176.628C44.2273 176.276 43.679 176.099 42.9631 176.099C42.2074 176.099 41.608 176.264 41.1648 176.594C40.7273 176.923 40.4318 177.312 40.2784 177.761L37.3977 177.352C37.625 176.557 38 175.892 38.5227 175.358C39.0455 174.818 39.6847 174.415 40.4403 174.148C41.196 173.875 42.0313 173.739 42.946 173.739C43.5767 173.739 44.2045 173.812 44.8295 173.96C45.4545 174.108 46.0256 174.352 46.5426 174.693C47.0597 175.028 47.4744 175.486 47.7869 176.065C48.1051 176.645 48.2642 177.369 48.2642 178.239V187H45.2983V185.202H45.196C45.0085 185.565 44.7443 185.906 44.4034 186.224C44.0682 186.537 43.6449 186.79 43.1335 186.983C42.6278 187.17 42.0341 187.264 41.3523 187.264ZM42.1534 184.997C42.7727 184.997 43.3097 184.875 43.7642 184.631C44.2188 184.381 44.5682 184.051 44.8125 183.642C45.0625 183.233 45.1875 182.787 45.1875 182.304V180.761C45.0909 180.841 44.9261 180.915 44.6932 180.983C44.4659 181.051 44.2102 181.111 43.9261 181.162C43.642 181.213 43.3608 181.259 43.0824 181.298C42.804 181.338 42.5625 181.372 42.358 181.401C41.8977 181.463 41.4858 181.565 41.1222 181.707C40.7585 181.849 40.4716 182.048 40.2614 182.304C40.0511 182.554 39.946 182.878 39.946 183.276C39.946 183.844 40.1534 184.273 40.5682 184.562C40.983 184.852 41.5114 184.997 42.1534 184.997ZM54.4517 179.33V187H51.3665V173.909H54.3153V176.134H54.4688C54.7699 175.401 55.25 174.818 55.9091 174.386C56.5739 173.955 57.3949 173.739 58.3722 173.739C59.2756 173.739 60.0625 173.932 60.733 174.318C61.4091 174.705 61.9318 175.264 62.3011 175.997C62.6761 176.73 62.8608 177.619 62.8551 178.665V187H59.7699V179.142C59.7699 178.267 59.5426 177.582 59.0881 177.088C58.6392 176.594 58.017 176.347 57.2216 176.347C56.6818 176.347 56.2017 176.466 55.7812 176.705C55.3665 176.937 55.0398 177.276 54.8011 177.719C54.5682 178.162 54.4517 178.699 54.4517 179.33ZM70.8494 187.23C69.821 187.23 68.9006 186.966 68.0881 186.438C67.2756 185.909 66.6335 185.142 66.1619 184.136C65.6903 183.131 65.4545 181.909 65.4545 180.472C65.4545 179.017 65.6932 177.79 66.1705 176.79C66.6534 175.784 67.304 175.026 68.1222 174.514C68.9403 173.997 69.8523 173.739 70.858 173.739C71.625 173.739 72.2557 173.869 72.75 174.131C73.2443 174.386 73.6364 174.696 73.9261 175.06C74.2159 175.418 74.4403 175.756 74.5994 176.074H74.7273V169.545H77.821V187H74.7869V184.938H74.5994C74.4403 185.256 74.2102 185.594 73.9091 185.952C73.608 186.304 73.2102 186.605 72.7159 186.855C72.2216 187.105 71.5994 187.23 70.8494 187.23ZM71.7102 184.699C72.3636 184.699 72.9205 184.523 73.3807 184.17C73.8409 183.812 74.1903 183.315 74.429 182.679C74.6676 182.043 74.7869 181.301 74.7869 180.455C74.7869 179.608 74.6676 178.872 74.429 178.247C74.196 177.622 73.8494 177.136 73.3892 176.79C72.9347 176.443 72.375 176.27 71.7102 176.27C71.0227 176.27 70.4489 176.449 69.9886 176.807C69.5284 177.165 69.1818 177.659 68.9489 178.29C68.7159 178.92 68.5994 179.642 68.5994 180.455C68.5994 181.273 68.7159 182.003 68.9489 182.645C69.1875 183.281 69.5369 183.784 69.9972 184.153C70.4631 184.517 71.0341 184.699 71.7102 184.699ZM87.0618 191.909V173.909H90.0959V176.074H90.2749C90.4339 175.756 90.6584 175.418 90.9482 175.06C91.2379 174.696 91.63 174.386 92.1243 174.131C92.6186 173.869 93.2493 173.739 94.0163 173.739C95.0277 173.739 95.9396 173.997 96.7521 174.514C97.5703 175.026 98.218 175.784 98.6953 176.79C99.1783 177.79 99.4197 179.017 99.4197 180.472C99.4197 181.909 99.1839 183.131 98.7124 184.136C98.2408 185.142 97.5987 185.909 96.7862 186.438C95.9737 186.966 95.0533 187.23 94.0249 187.23C93.2749 187.23 92.6527 187.105 92.1584 186.855C91.6641 186.605 91.2663 186.304 90.9652 185.952C90.6697 185.594 90.4396 185.256 90.2749 184.938H90.147V191.909H87.0618ZM90.0874 180.455C90.0874 181.301 90.2067 182.043 90.4453 182.679C90.6896 183.315 91.0391 183.812 91.4936 184.17C91.9538 184.523 92.5107 184.699 93.1641 184.699C93.8459 184.699 94.4169 184.517 94.8771 184.153C95.3374 183.784 95.6839 183.281 95.9169 182.645C96.1555 182.003 96.2749 181.273 96.2749 180.455C96.2749 179.642 96.1584 178.92 95.9254 178.29C95.6925 177.659 95.3459 177.165 94.8857 176.807C94.4254 176.449 93.8516 176.27 93.1641 176.27C92.505 176.27 91.9453 176.443 91.4851 176.79C91.0249 177.136 90.6754 177.622 90.4368 178.247C90.2038 178.872 90.0874 179.608 90.0874 180.455ZM107.857 187.256C106.545 187.256 105.411 186.983 104.457 186.438C103.508 185.886 102.778 185.108 102.266 184.102C101.755 183.091 101.499 181.901 101.499 180.531C101.499 179.185 101.755 178.003 102.266 176.986C102.783 175.963 103.505 175.168 104.431 174.599C105.357 174.026 106.445 173.739 107.695 173.739C108.502 173.739 109.263 173.869 109.979 174.131C110.701 174.386 111.337 174.784 111.888 175.324C112.445 175.864 112.883 176.551 113.201 177.386C113.519 178.216 113.678 179.205 113.678 180.352V181.298H102.948V179.219H110.721C110.715 178.628 110.587 178.102 110.337 177.642C110.087 177.176 109.738 176.81 109.289 176.543C108.846 176.276 108.329 176.142 107.738 176.142C107.107 176.142 106.553 176.295 106.076 176.602C105.599 176.903 105.227 177.301 104.96 177.795C104.698 178.284 104.565 178.821 104.559 179.406V181.222C104.559 181.983 104.698 182.636 104.977 183.182C105.255 183.722 105.644 184.136 106.144 184.426C106.644 184.71 107.229 184.852 107.9 184.852C108.349 184.852 108.755 184.79 109.119 184.665C109.482 184.534 109.798 184.344 110.065 184.094C110.332 183.844 110.533 183.534 110.67 183.165L113.55 183.489C113.369 184.25 113.022 184.915 112.511 185.483C112.005 186.045 111.357 186.483 110.567 186.795C109.778 187.102 108.874 187.256 107.857 187.256ZM116.288 187V173.909H119.28V176.091H119.416C119.655 175.335 120.064 174.753 120.643 174.344C121.229 173.929 121.896 173.722 122.646 173.722C122.817 173.722 123.007 173.73 123.217 173.747C123.433 173.759 123.612 173.778 123.754 173.807V176.645C123.624 176.599 123.416 176.56 123.132 176.526C122.854 176.486 122.584 176.466 122.322 176.466C121.76 176.466 121.254 176.588 120.805 176.832C120.362 177.071 120.013 177.403 119.757 177.83C119.501 178.256 119.374 178.747 119.374 179.304V187H116.288ZM133.138 173.909V176.295H125.399V173.909H133.138ZM127.334 187V172.673C127.334 171.793 127.516 171.06 127.879 170.474C128.249 169.889 128.743 169.452 129.362 169.162C129.982 168.872 130.669 168.727 131.425 168.727C131.959 168.727 132.433 168.77 132.848 168.855C133.263 168.94 133.57 169.017 133.768 169.085L133.155 171.472C133.024 171.432 132.859 171.392 132.661 171.352C132.462 171.307 132.24 171.284 131.996 171.284C131.422 171.284 131.016 171.423 130.777 171.702C130.544 171.974 130.428 172.366 130.428 172.878V187H127.334ZM140.772 187.256C139.494 187.256 138.386 186.974 137.448 186.412C136.511 185.849 135.783 185.062 135.266 184.051C134.755 183.04 134.499 181.858 134.499 180.506C134.499 179.153 134.755 177.969 135.266 176.952C135.783 175.935 136.511 175.145 137.448 174.582C138.386 174.02 139.494 173.739 140.772 173.739C142.05 173.739 143.158 174.02 144.096 174.582C145.033 175.145 145.758 175.935 146.269 176.952C146.786 177.969 147.045 179.153 147.045 180.506C147.045 181.858 146.786 183.04 146.269 184.051C145.758 185.062 145.033 185.849 144.096 186.412C143.158 186.974 142.05 187.256 140.772 187.256ZM140.789 184.784C141.482 184.784 142.062 184.594 142.528 184.213C142.994 183.827 143.34 183.31 143.567 182.662C143.8 182.014 143.917 181.293 143.917 180.497C143.917 179.696 143.8 178.972 143.567 178.324C143.34 177.67 142.994 177.151 142.528 176.764C142.062 176.378 141.482 176.185 140.789 176.185C140.079 176.185 139.488 176.378 139.016 176.764C138.55 177.151 138.201 177.67 137.968 178.324C137.741 178.972 137.627 179.696 137.627 180.497C137.627 181.293 137.741 182.014 137.968 182.662C138.201 183.31 138.55 183.827 139.016 184.213C139.488 184.594 140.079 184.784 140.789 184.784ZM149.663 187V173.909H152.655V176.091H152.791C153.03 175.335 153.439 174.753 154.018 174.344C154.604 173.929 155.271 173.722 156.021 173.722C156.192 173.722 156.382 173.73 156.592 173.747C156.808 173.759 156.987 173.778 157.129 173.807V176.645C156.999 176.599 156.791 176.56 156.507 176.526C156.229 176.486 155.959 176.466 155.697 176.466C155.135 176.466 154.629 176.588 154.18 176.832C153.737 177.071 153.388 177.403 153.132 177.83C152.876 178.256 152.749 178.747 152.749 179.304V187H149.663ZM159.179 187V173.909H162.128V176.134H162.281C162.554 175.384 163.006 174.798 163.636 174.378C164.267 173.952 165.02 173.739 165.895 173.739C166.781 173.739 167.528 173.955 168.136 174.386C168.75 174.812 169.182 175.395 169.432 176.134H169.568C169.858 175.406 170.347 174.827 171.034 174.395C171.727 173.957 172.548 173.739 173.497 173.739C174.702 173.739 175.685 174.119 176.446 174.881C177.207 175.642 177.588 176.753 177.588 178.213V187H174.494V178.69C174.494 177.878 174.278 177.284 173.847 176.909C173.415 176.528 172.886 176.338 172.261 176.338C171.517 176.338 170.935 176.571 170.514 177.037C170.099 177.497 169.892 178.097 169.892 178.835V187H166.866V178.562C166.866 177.886 166.662 177.347 166.253 176.943C165.849 176.54 165.321 176.338 164.668 176.338C164.224 176.338 163.821 176.452 163.457 176.679C163.094 176.901 162.804 177.216 162.588 177.625C162.372 178.028 162.264 178.5 162.264 179.04V187H159.179ZM184.485 187.264C183.656 187.264 182.908 187.116 182.244 186.821C181.585 186.52 181.062 186.077 180.675 185.491C180.295 184.906 180.104 184.185 180.104 183.327C180.104 182.588 180.241 181.977 180.513 181.494C180.786 181.011 181.158 180.625 181.63 180.335C182.102 180.045 182.633 179.827 183.224 179.679C183.82 179.526 184.437 179.415 185.073 179.347C185.84 179.267 186.462 179.196 186.94 179.134C187.417 179.065 187.763 178.963 187.979 178.827C188.201 178.685 188.312 178.466 188.312 178.17V178.119C188.312 177.477 188.121 176.98 187.741 176.628C187.36 176.276 186.812 176.099 186.096 176.099C185.34 176.099 184.741 176.264 184.298 176.594C183.86 176.923 183.565 177.312 183.411 177.761L180.531 177.352C180.758 176.557 181.133 175.892 181.656 175.358C182.178 174.818 182.817 174.415 183.573 174.148C184.329 173.875 185.164 173.739 186.079 173.739C186.71 173.739 187.337 173.812 187.962 173.96C188.587 174.108 189.158 174.352 189.675 174.693C190.192 175.028 190.607 175.486 190.92 176.065C191.238 176.645 191.397 177.369 191.397 178.239V187H188.431V185.202H188.329C188.141 185.565 187.877 185.906 187.536 186.224C187.201 186.537 186.778 186.79 186.266 186.983C185.761 187.17 185.167 187.264 184.485 187.264ZM185.286 184.997C185.906 184.997 186.442 184.875 186.897 184.631C187.352 184.381 187.701 184.051 187.945 183.642C188.195 183.233 188.32 182.787 188.32 182.304V180.761C188.224 180.841 188.059 180.915 187.826 180.983C187.599 181.051 187.343 181.111 187.059 181.162C186.775 181.213 186.494 181.259 186.215 181.298C185.937 181.338 185.695 181.372 185.491 181.401C185.031 181.463 184.619 181.565 184.255 181.707C183.891 181.849 183.604 182.048 183.394 182.304C183.184 182.554 183.079 182.878 183.079 183.276C183.079 183.844 183.286 184.273 183.701 184.562C184.116 184.852 184.644 184.997 185.286 184.997ZM197.585 179.33V187H194.499V173.909H197.448V176.134H197.602C197.903 175.401 198.383 174.818 199.042 174.386C199.707 173.955 200.528 173.739 201.505 173.739C202.408 173.739 203.195 173.932 203.866 174.318C204.542 174.705 205.065 175.264 205.434 175.997C205.809 176.73 205.994 177.619 205.988 178.665V187H202.903V179.142C202.903 178.267 202.675 177.582 202.221 177.088C201.772 176.594 201.15 176.347 200.354 176.347C199.815 176.347 199.335 176.466 198.914 176.705C198.499 176.937 198.173 177.276 197.934 177.719C197.701 178.162 197.585 178.699 197.585 179.33ZM214.835 187.256C213.528 187.256 212.406 186.969 211.468 186.395C210.536 185.821 209.817 185.028 209.312 184.017C208.812 183 208.562 181.83 208.562 180.506C208.562 179.176 208.817 178.003 209.329 176.986C209.84 175.963 210.562 175.168 211.494 174.599C212.431 174.026 213.539 173.739 214.817 173.739C215.88 173.739 216.82 173.935 217.638 174.327C218.462 174.713 219.119 175.261 219.607 175.972C220.096 176.676 220.374 177.5 220.442 178.443H217.494C217.374 177.812 217.09 177.287 216.641 176.866C216.198 176.44 215.604 176.227 214.86 176.227C214.229 176.227 213.675 176.398 213.198 176.739C212.721 177.074 212.349 177.557 212.082 178.188C211.82 178.818 211.69 179.574 211.69 180.455C211.69 181.347 211.82 182.114 212.082 182.756C212.343 183.392 212.71 183.884 213.181 184.23C213.658 184.571 214.218 184.741 214.86 184.741C215.315 184.741 215.721 184.656 216.079 184.486C216.442 184.31 216.746 184.057 216.991 183.727C217.235 183.398 217.403 182.997 217.494 182.526H220.442C220.369 183.452 220.096 184.273 219.624 184.989C219.153 185.699 218.511 186.256 217.698 186.659C216.886 187.057 215.931 187.256 214.835 187.256ZM228.771 187.256C227.459 187.256 226.325 186.983 225.371 186.438C224.422 185.886 223.692 185.108 223.18 184.102C222.669 183.091 222.413 181.901 222.413 180.531C222.413 179.185 222.669 178.003 223.18 176.986C223.697 175.963 224.419 175.168 225.345 174.599C226.271 174.026 227.359 173.739 228.609 173.739C229.416 173.739 230.178 173.869 230.893 174.131C231.615 174.386 232.251 174.784 232.803 175.324C233.359 175.864 233.797 176.551 234.115 177.386C234.433 178.216 234.592 179.205 234.592 180.352V181.298H223.862V179.219H231.635C231.629 178.628 231.501 178.102 231.251 177.642C231.001 177.176 230.652 176.81 230.203 176.543C229.76 176.276 229.243 176.142 228.652 176.142C228.021 176.142 227.467 176.295 226.99 176.602C226.513 176.903 226.141 177.301 225.874 177.795C225.612 178.284 225.479 178.821 225.473 179.406V181.222C225.473 181.983 225.612 182.636 225.891 183.182C226.169 183.722 226.558 184.136 227.058 184.426C227.558 184.71 228.143 184.852 228.814 184.852C229.263 184.852 229.669 184.79 230.033 184.665C230.396 184.534 230.712 184.344 230.979 184.094C231.246 183.844 231.447 183.534 231.584 183.165L234.464 183.489C234.283 184.25 233.936 184.915 233.425 185.483C232.919 186.045 232.271 186.483 231.482 186.795C230.692 187.102 229.788 187.256 228.771 187.256Z" fill="white"/>
</g>
<defs>
<linearGradient id="paint0_linear_1_52" x1="38" y1="60" x2="38" y2="119" gradientUnits="userSpaceOnUse">
<stop stop-color="white"/>
<stop offset="1" stop-color="white" stop-opacity="0"/>
</linearGradient>
<linearGradient id="paint1_linear_1_52" x1="338.407" y1="121" x2="379.802" y2="63.8672" gradientUnits="userSpaceOnUse">
<stop stop-color="#A8FF78"/>
<stop offset="1" stop-color="#78FFD6"/>
</linearGradient>
<linearGradient id="paint2_linear_1_52" x1="338.407" y1="121" x2="379.802" y2="63.8672" gradientUnits="userSpaceOnUse">
<stop stop-color="#A8FF78"/>
<stop offset="1" stop-color="#78FFD6"/>
</linearGradient>
<clipPath id="clip0_1_52">
<rect width="460" height="368" fill="white"/>
</clipPath>
</defs>
</svg>
