<svg width="460" height="368" viewBox="0 0 460 368" fill="none" xmlns="http://www.w3.org/2000/svg">
<g clip-path="url(#clip0_1_71)">
<path d="M450 0H10C4.47715 0 0 4.47715 0 10V358C0 363.523 4.47715 368 10 368H450C455.523 368 460 363.523 460 358V10C460 4.47715 455.523 0 450 0Z" fill="white"/>
<path d="M36 173.68L115.008 127.939V42.0002L36 87.7416V173.68Z" fill="url(#paint0_linear_1_71)"/>
<path fill-rule="evenodd" clip-rule="evenodd" d="M115.008 119.622V122.394L36 168.136V165.363L115.008 119.622ZM115.008 116.85L36 162.591V159.819L115.008 114.078V116.85ZM36 154.275V157.047L115.008 111.305V108.533L36 154.275ZM36 151.502V148.73L115.008 102.989V105.761L36 151.502ZM36 143.186V145.958L115.008 100.217V97.4443L36 143.186ZM36 140.413V137.641L115.008 91.8999V94.6721L36 140.413ZM36 132.097V134.869L115.008 89.1277V86.3555L36 132.097ZM36 129.325V126.552L115.008 80.8111V83.5833L36 129.325ZM36 121.008V123.78L115.008 78.0389V75.2667L36 121.008ZM36 118.236V115.464L115.008 69.7223V72.4945L36 118.236ZM36 109.919V112.691L115.008 66.9501V64.1779L36 109.919ZM36 107.147V104.375L115.008 58.6335V61.4057L36 107.147ZM36 98.8304V101.603L115.008 55.8613V53.0891L36 98.8304ZM36 96.0582V93.286L115.008 47.5446V50.3168L36 96.0582ZM36 87.7416V90.5138L115.008 44.7724V42.0002L36 87.7416ZM115.008 127.939V125.166L36 170.908V173.68L115.008 127.939Z" fill="url(#paint1_linear_1_71)"/>
<path d="M115.008 127.939L194.016 173.68V87.7415L115.008 42.0002V127.939Z" fill="url(#paint2_linear_1_71)"/>
<path fill-rule="evenodd" clip-rule="evenodd" d="M194.016 165.363V168.135L115.008 122.394V119.622L194.016 165.363ZM194.016 162.591L115.008 116.85V114.078L194.016 159.819V162.591ZM115.008 108.533V111.305L194.016 157.047V154.274L115.008 108.533ZM115.008 105.761V102.989L194.016 148.73V151.502L115.008 105.761ZM115.008 97.4443V100.217L194.016 145.958V143.186L115.008 97.4443ZM115.008 94.6721V91.8999L194.016 137.641V140.413L115.008 94.6721ZM115.008 86.3555V89.1277L194.016 134.869V132.097L115.008 86.3555ZM115.008 83.5833V80.8111L194.016 126.552V129.325L115.008 83.5833ZM115.008 75.2667V78.0389L194.016 123.78V121.008L115.008 75.2667ZM115.008 72.4945V69.7223L194.016 115.464V118.236L115.008 72.4945ZM115.008 64.1779V66.9501L194.016 112.691V109.919L115.008 64.1779ZM115.008 61.4057V58.6335L194.016 104.375V107.147L115.008 61.4057ZM115.008 53.089V55.8613L194.016 101.603V98.8304L115.008 53.089ZM115.008 50.3168V47.5446L194.016 93.286V96.0582L115.008 50.3168ZM115.008 42.0002V44.7724L194.016 90.5138V87.7415L115.008 42.0002ZM194.016 173.68V170.908L115.008 125.166V127.939L194.016 173.68Z" fill="url(#paint3_linear_1_71)"/>
<path d="M36 87.741L115.008 133.482V219.421L36 173.679V87.741Z" fill="url(#paint4_linear_1_71)"/>
<path fill-rule="evenodd" clip-rule="evenodd" d="M115.008 141.799V139.027L36 93.2854V96.0576L115.008 141.799ZM115.008 144.571L36 98.8298V101.602L115.008 147.343V144.571ZM36 107.146V104.374L115.008 150.116V152.888L36 107.146ZM36 109.919V112.691L115.008 158.432V155.66L36 109.919ZM36 118.235V115.463L115.008 161.204V163.977L36 118.235ZM36 121.007V123.78L115.008 169.521V166.749L36 121.007ZM36 129.324V126.552L115.008 172.293V175.065L36 129.324ZM36 132.096V134.868L115.008 180.61V177.838L36 132.096ZM36 140.413V137.641L115.008 183.382V186.154L36 140.413ZM36 143.185V145.957L115.008 191.699V188.926L36 143.185ZM36 151.502V148.729L115.008 194.471V197.243L36 151.502ZM36 154.274V157.046L115.008 202.787V200.015L36 154.274ZM36 162.59V159.818L115.008 205.56V208.332L36 162.59ZM36 165.363V168.135L115.008 213.876V211.104L36 165.363ZM36 173.679V170.907L115.008 216.648V219.421L36 173.679ZM115.008 133.482V136.255L36 90.5132V87.741L115.008 133.482Z" fill="url(#paint5_linear_1_71)"/>
<path d="M115.008 133.482L194.016 87.741V173.679L115.008 219.421V133.482Z" fill="url(#paint6_linear_1_71)"/>
<path fill-rule="evenodd" clip-rule="evenodd" d="M194.016 96.0576V93.2854L115.008 139.027V141.799L194.016 96.0576ZM194.016 98.8298L115.008 144.571V147.343L194.016 101.602V98.8298ZM115.008 152.888V150.116L194.016 104.374V107.146L115.008 152.888ZM115.008 155.66V158.432L194.016 112.691V109.919L115.008 155.66ZM115.008 163.977V161.204L194.016 115.463V118.235L115.008 163.977ZM115.008 166.749V169.521L194.016 123.78V121.007L115.008 166.749ZM115.008 175.065V172.293L194.016 126.552V129.324L115.008 175.065ZM115.008 177.838V180.61L194.016 134.868V132.096L115.008 177.838ZM115.008 186.154V183.382L194.016 137.641V140.413L115.008 186.154ZM115.008 188.926V191.699L194.016 145.957V143.185L115.008 188.926ZM115.008 197.243V194.471L194.016 148.73V151.502L115.008 197.243ZM115.008 200.015V202.787L194.016 157.046V154.274L115.008 200.015ZM115.008 208.332V205.56L194.016 159.818V162.591L115.008 208.332ZM115.008 211.104V213.876L194.016 168.135V165.363L115.008 211.104ZM115.008 219.421V216.648L194.016 170.907V173.679L115.008 219.421ZM194.016 87.741V90.5132L115.008 136.255V133.482L194.016 87.741Z" fill="url(#paint7_linear_1_71)"/>
<path d="M242.885 152.136V158.309C242.885 159.573 243.63 160.4 244.956 160.4C246.275 160.4 247.021 159.573 247.021 158.309V152.136H249.085V158.514C249.085 160.688 247.479 162.171 244.956 162.171C242.427 162.171 240.82 160.688 240.82 158.514V152.136H242.885ZM257.11 160.291V162H250.732V152.136H252.797V160.291H257.11ZM261.485 162H259.421V153.838H256.57V152.136H264.343V153.838H261.485V162ZM267.549 162H265.484V152.136H267.549V162ZM279.635 162H277.796V155.342H277.741L275.062 161.904H273.763L271.083 155.342H271.028V162H269.189V152.136H271.582L274.385 159.129H274.439L277.242 152.136H279.635V162ZM287.735 162L286.983 159.607H283.518L282.766 162H280.646L284.071 152.136H286.498L289.93 162H287.735ZM285.227 154.022L283.962 158.062H286.539L285.274 154.022H285.227ZM294.024 162H291.96V153.838H289.109V152.136H296.882V153.838H294.024V162ZM304.559 160.291V162H298.023V152.136H304.559V153.838H300.088V156.217H304.306V157.803H300.088V160.291H304.559ZM240.451 176.19H242.44C242.536 177.004 243.384 177.537 244.478 177.537C245.578 177.537 246.33 177.011 246.33 176.286C246.33 175.644 245.858 175.288 244.669 175.021L243.384 174.741C241.565 174.352 240.67 173.429 240.67 171.986C240.67 170.168 242.242 168.965 244.443 168.965C246.74 168.965 248.183 170.147 248.217 171.932H246.282C246.214 171.098 245.482 170.592 244.45 170.592C243.432 170.592 242.748 171.077 242.748 171.809C242.748 172.417 243.227 172.759 244.361 173.019L245.558 173.271C247.533 173.695 248.395 174.543 248.395 176.047C248.395 177.961 246.843 179.171 244.396 179.171C242.023 179.171 240.513 178.043 240.451 176.19ZM256.201 177.291V179H249.666V169.136H256.201V170.838H251.73V173.217H255.948V174.803H251.73V177.291H256.201ZM262.053 179.171C259.182 179.171 257.384 177.25 257.384 174.064C257.384 170.886 259.195 168.965 262.053 168.965C264.425 168.965 266.229 170.469 266.387 172.677H264.377C264.186 171.467 263.256 170.674 262.053 170.674C260.494 170.674 259.489 171.979 259.489 174.058C259.489 176.163 260.48 177.462 262.06 177.462C263.283 177.462 264.165 176.744 264.384 175.575H266.394C266.161 177.776 264.473 179.171 262.053 179.171ZM271.78 179H269.716V170.838H266.865V169.136H274.638V170.838H271.78V179ZM277.844 179H275.779V169.136H277.844V179ZM283.935 168.965C286.854 168.965 288.692 170.927 288.692 174.071C288.692 177.209 286.854 179.171 283.935 179.171C281.009 179.171 279.177 177.209 279.177 174.071C279.177 170.927 281.009 168.965 283.935 168.965ZM283.935 170.688C282.321 170.688 281.282 172 281.282 174.071C281.282 176.136 282.314 177.441 283.935 177.441C285.548 177.441 286.58 176.136 286.58 174.071C286.58 172 285.548 170.688 283.935 170.688ZM292.001 179H290.025V169.136H291.748L296.355 175.562H296.41V169.136H298.386V179H296.677L292.062 172.54H292.001V179ZM299.664 176.19H301.653C301.749 177.004 302.597 177.537 303.69 177.537C304.791 177.537 305.543 177.011 305.543 176.286C305.543 175.644 305.071 175.288 303.882 175.021L302.597 174.741C300.778 174.352 299.883 173.429 299.883 171.986C299.883 170.168 301.455 168.965 303.656 168.965C305.953 168.965 307.396 170.147 307.43 171.932H305.495C305.427 171.098 304.695 170.592 303.663 170.592C302.645 170.592 301.961 171.077 301.961 171.809C301.961 172.417 302.439 172.759 303.574 173.019L304.771 173.271C306.746 173.695 307.607 174.543 307.607 176.047C307.607 177.961 306.056 179.171 303.608 179.171C301.236 179.171 299.726 178.043 299.664 176.19ZM316.016 179.171C313.145 179.171 311.347 177.25 311.347 174.064C311.347 170.886 313.158 168.965 316.016 168.965C318.388 168.965 320.192 170.469 320.35 172.677H318.34C318.148 171.467 317.219 170.674 316.016 170.674C314.457 170.674 313.452 171.979 313.452 174.058C313.452 176.163 314.443 177.462 316.022 177.462C317.246 177.462 318.128 176.744 318.347 175.575H320.356C320.124 177.776 318.436 179.171 316.016 179.171ZM326.085 168.965C329.004 168.965 330.843 170.927 330.843 174.071C330.843 177.209 329.004 179.171 326.085 179.171C323.159 179.171 321.327 177.209 321.327 174.071C321.327 170.927 323.159 168.965 326.085 168.965ZM326.085 170.688C324.472 170.688 323.433 172 323.433 174.071C323.433 176.136 324.465 177.441 326.085 177.441C327.698 177.441 328.73 176.136 328.73 174.071C328.73 172 327.698 170.688 326.085 170.688ZM338.554 177.291V179H332.176V169.136H334.24V177.291H338.554ZM346.155 177.291V179H339.777V169.136H341.842V177.291H346.155ZM353.914 177.291V179H347.379V169.136H353.914V170.838H349.443V173.217H353.661V174.803H349.443V177.291H353.914ZM359.766 179.171C356.895 179.171 355.097 177.25 355.097 174.064C355.097 170.886 356.908 168.965 359.766 168.965C362.138 168.965 363.942 170.469 364.1 172.677H362.09C361.898 171.467 360.969 170.674 359.766 170.674C358.207 170.674 357.202 171.979 357.202 174.058C357.202 176.163 358.193 177.462 359.772 177.462C360.996 177.462 361.878 176.744 362.097 175.575H364.106C363.874 177.776 362.186 179.171 359.766 179.171ZM369.493 179H367.429V170.838H364.578V169.136H372.351V170.838H369.493V179ZM375.557 179H373.492V169.136H375.557V179ZM381.647 168.965C384.566 168.965 386.405 170.927 386.405 174.071C386.405 177.209 384.566 179.171 381.647 179.171C378.722 179.171 376.89 177.209 376.89 174.071C376.89 170.927 378.722 168.965 381.647 168.965ZM381.647 170.688C380.034 170.688 378.995 172 378.995 174.071C378.995 176.136 380.027 177.441 381.647 177.441C383.261 177.441 384.293 176.136 384.293 174.071C384.293 172 383.261 170.688 381.647 170.688ZM389.714 179H387.738V169.136H389.461L394.068 175.562H394.123V169.136H396.099V179H394.39L389.775 172.54H389.714V179Z" fill="black"/>
<path d="M383 192H240V195H383V192Z" fill="url(#paint8_linear_1_71)"/>
<path d="M375 44.5V39.5195H383.105V32H388.086V39.5195H396.211V44.5H388.086V52H383.105V44.5H375Z" fill="black"/>
<path d="M255.455 121.909V112.636L296.364 47.9091H303.091V62.2727H298.545L267.636 111.182V111.909H322.727V121.909H255.455ZM299.273 141V119.091V114.773V47.9091H310V141H299.273ZM371.239 47.9091V141H359.966V59.7273H359.42L336.693 74.8182V63.3636L359.966 47.9091H371.239Z" fill="black"/>
<path d="M43.6364 261H37.7216V243.545H43.7557C45.4886 243.545 46.9773 243.895 48.2216 244.594C49.4716 245.287 50.4318 246.284 51.1023 247.585C51.7727 248.886 52.108 250.443 52.108 252.256C52.108 254.074 51.7699 255.636 51.0938 256.943C50.4233 258.25 49.4545 259.253 48.1875 259.952C46.9261 260.651 45.4091 261 43.6364 261ZM40.8835 258.264H43.483C44.6989 258.264 45.7131 258.043 46.5256 257.599C47.3381 257.151 47.9489 256.483 48.358 255.597C48.767 254.705 48.9716 253.591 48.9716 252.256C48.9716 250.92 48.767 249.812 48.358 248.932C47.9489 248.045 47.3438 247.384 46.5426 246.946C45.7472 246.503 44.7585 246.281 43.5767 246.281H40.8835V258.264ZM60.7713 261.256C59.4588 261.256 58.3253 260.983 57.3707 260.438C56.4219 259.886 55.6918 259.108 55.1804 258.102C54.669 257.091 54.4134 255.901 54.4134 254.531C54.4134 253.185 54.669 252.003 55.1804 250.986C55.6974 249.963 56.419 249.168 57.3452 248.599C58.2713 248.026 59.3594 247.739 60.6094 247.739C61.4162 247.739 62.1776 247.869 62.8935 248.131C63.6151 248.386 64.2514 248.784 64.8026 249.324C65.3594 249.864 65.7969 250.551 66.1151 251.386C66.4332 252.216 66.5923 253.205 66.5923 254.352V255.298H55.8622V253.219H63.6349C63.6293 252.628 63.5014 252.102 63.2514 251.642C63.0014 251.176 62.652 250.81 62.2031 250.543C61.7599 250.276 61.2429 250.142 60.652 250.142C60.0213 250.142 59.4673 250.295 58.9901 250.602C58.5128 250.903 58.1406 251.301 57.8736 251.795C57.6122 252.284 57.4787 252.821 57.473 253.406V255.222C57.473 255.983 57.6122 256.636 57.8906 257.182C58.169 257.722 58.5582 258.136 59.0582 258.426C59.5582 258.71 60.1435 258.852 60.8139 258.852C61.2628 258.852 61.669 258.79 62.0327 258.665C62.3963 258.534 62.7116 258.344 62.9787 258.094C63.2457 257.844 63.4474 257.534 63.5838 257.165L66.4645 257.489C66.2827 258.25 65.9361 258.915 65.4247 259.483C64.919 260.045 64.2713 260.483 63.4815 260.795C62.6918 261.102 61.7884 261.256 60.7713 261.256ZM72.2876 243.545V261H69.2024V243.545H72.2876ZM75.4602 261V247.909H78.5455V261H75.4602ZM77.0114 246.051C76.5227 246.051 76.1023 245.889 75.75 245.565C75.3977 245.236 75.2216 244.841 75.2216 244.381C75.2216 243.915 75.3977 243.52 75.75 243.196C76.1023 242.866 76.5227 242.702 77.0114 242.702C77.5057 242.702 77.9261 242.866 78.2727 243.196C78.625 243.52 78.8011 243.915 78.8011 244.381C78.8011 244.841 78.625 245.236 78.2727 245.565C77.9261 245.889 77.5057 246.051 77.0114 246.051ZM93.4112 247.909L88.7493 261H85.3402L80.6783 247.909H83.968L86.9766 257.634H87.1129L90.13 247.909H93.4112ZM100.896 261.256C99.5838 261.256 98.4503 260.983 97.4957 260.438C96.5469 259.886 95.8168 259.108 95.3054 258.102C94.794 257.091 94.5384 255.901 94.5384 254.531C94.5384 253.185 94.794 252.003 95.3054 250.986C95.8224 249.963 96.544 249.168 97.4702 248.599C98.3963 248.026 99.4844 247.739 100.734 247.739C101.541 247.739 102.303 247.869 103.018 248.131C103.74 248.386 104.376 248.784 104.928 249.324C105.484 249.864 105.922 250.551 106.24 251.386C106.558 252.216 106.717 253.205 106.717 254.352V255.298H95.9872V253.219H103.76C103.754 252.628 103.626 252.102 103.376 251.642C103.126 251.176 102.777 250.81 102.328 250.543C101.885 250.276 101.368 250.142 100.777 250.142C100.146 250.142 99.5923 250.295 99.1151 250.602C98.6378 250.903 98.2656 251.301 97.9986 251.795C97.7372 252.284 97.6037 252.821 97.598 253.406V255.222C97.598 255.983 97.7372 256.636 98.0156 257.182C98.294 257.722 98.6832 258.136 99.1832 258.426C99.6832 258.71 100.268 258.852 100.939 258.852C101.388 258.852 101.794 258.79 102.158 258.665C102.521 258.534 102.837 258.344 103.104 258.094C103.371 257.844 103.572 257.534 103.709 257.165L106.589 257.489C106.408 258.25 106.061 258.915 105.55 259.483C105.044 260.045 104.396 260.483 103.607 260.795C102.817 261.102 101.913 261.256 100.896 261.256ZM109.327 261V247.909H112.319V250.091H112.455C112.694 249.335 113.103 248.753 113.683 248.344C114.268 247.929 114.935 247.722 115.685 247.722C115.856 247.722 116.046 247.73 116.256 247.747C116.472 247.759 116.651 247.778 116.793 247.807V250.645C116.663 250.599 116.455 250.56 116.171 250.526C115.893 250.486 115.623 250.466 115.362 250.466C114.799 250.466 114.293 250.588 113.844 250.832C113.401 251.071 113.052 251.403 112.796 251.83C112.54 252.256 112.413 252.747 112.413 253.304V261H109.327ZM118.843 261V247.909H121.928V261H118.843ZM120.394 246.051C119.906 246.051 119.485 245.889 119.133 245.565C118.781 245.236 118.604 244.841 118.604 244.381C118.604 243.915 118.781 243.52 119.133 243.196C119.485 242.866 119.906 242.702 120.394 242.702C120.888 242.702 121.309 242.866 121.656 243.196C122.008 243.52 122.184 243.915 122.184 244.381C122.184 244.841 122.008 245.236 121.656 245.565C121.309 245.889 120.888 246.051 120.394 246.051ZM128.186 253.33V261H125.101V247.909H128.05V250.134H128.203C128.504 249.401 128.984 248.818 129.643 248.386C130.308 247.955 131.129 247.739 132.107 247.739C133.01 247.739 133.797 247.932 134.467 248.318C135.143 248.705 135.666 249.264 136.036 249.997C136.411 250.73 136.595 251.619 136.589 252.665V261H133.504V253.142C133.504 252.267 133.277 251.582 132.822 251.088C132.374 250.594 131.751 250.347 130.956 250.347C130.416 250.347 129.936 250.466 129.516 250.705C129.101 250.937 128.774 251.276 128.536 251.719C128.303 252.162 128.186 252.699 128.186 253.33ZM145.419 266.182C144.311 266.182 143.359 266.031 142.564 265.73C141.768 265.435 141.129 265.037 140.646 264.537C140.163 264.037 139.828 263.483 139.641 262.875L142.419 262.202C142.544 262.457 142.726 262.71 142.964 262.96C143.203 263.216 143.524 263.426 143.928 263.591C144.337 263.761 144.851 263.847 145.47 263.847C146.345 263.847 147.07 263.634 147.643 263.207C148.217 262.787 148.504 262.094 148.504 261.128V258.648H148.351C148.192 258.966 147.959 259.293 147.652 259.628C147.351 259.963 146.95 260.244 146.45 260.472C145.956 260.699 145.334 260.812 144.584 260.812C143.578 260.812 142.666 260.577 141.848 260.105C141.036 259.628 140.388 258.918 139.905 257.974C139.428 257.026 139.189 255.838 139.189 254.412C139.189 252.974 139.428 251.761 139.905 250.773C140.388 249.778 141.038 249.026 141.857 248.514C142.675 247.997 143.587 247.739 144.592 247.739C145.359 247.739 145.99 247.869 146.484 248.131C146.984 248.386 147.382 248.696 147.678 249.06C147.973 249.418 148.197 249.756 148.351 250.074H148.521V247.909H151.564V261.213C151.564 262.332 151.297 263.259 150.763 263.991C150.229 264.724 149.499 265.273 148.572 265.636C147.646 266 146.595 266.182 145.419 266.182ZM145.445 258.392C146.098 258.392 146.655 258.233 147.115 257.915C147.575 257.597 147.925 257.139 148.163 256.543C148.402 255.946 148.521 255.23 148.521 254.395C148.521 253.571 148.402 252.849 148.163 252.23C147.93 251.611 147.584 251.131 147.124 250.79C146.669 250.443 146.109 250.27 145.445 250.27C144.757 250.27 144.183 250.449 143.723 250.807C143.263 251.165 142.916 251.656 142.683 252.281C142.45 252.901 142.334 253.605 142.334 254.395C142.334 255.196 142.45 255.898 142.683 256.5C142.922 257.097 143.271 257.562 143.732 257.898C144.197 258.227 144.768 258.392 145.445 258.392ZM167.216 247.909V250.295H159.69V247.909H167.216ZM161.548 244.773H164.634V257.062C164.634 257.477 164.696 257.795 164.821 258.017C164.952 258.233 165.122 258.381 165.332 258.46C165.543 258.54 165.776 258.58 166.031 258.58C166.224 258.58 166.401 258.565 166.56 258.537C166.724 258.509 166.849 258.483 166.935 258.46L167.455 260.872C167.29 260.929 167.054 260.991 166.747 261.06C166.446 261.128 166.077 261.168 165.639 261.179C164.866 261.202 164.17 261.085 163.551 260.83C162.932 260.568 162.44 260.165 162.077 259.619C161.719 259.074 161.543 258.392 161.548 257.574V244.773ZM173.163 253.33V261H170.077V243.545H173.094V250.134H173.248C173.555 249.395 174.029 248.812 174.671 248.386C175.319 247.955 176.143 247.739 177.143 247.739C178.052 247.739 178.844 247.929 179.521 248.31C180.197 248.69 180.719 249.247 181.089 249.98C181.464 250.713 181.651 251.608 181.651 252.665V261H178.566V253.142C178.566 252.261 178.339 251.577 177.884 251.088C177.435 250.594 176.805 250.347 175.992 250.347C175.447 250.347 174.958 250.466 174.526 250.705C174.1 250.937 173.765 251.276 173.521 251.719C173.282 252.162 173.163 252.699 173.163 253.33ZM190.592 261.256C189.279 261.256 188.146 260.983 187.191 260.438C186.242 259.886 185.512 259.108 185.001 258.102C184.489 257.091 184.234 255.901 184.234 254.531C184.234 253.185 184.489 252.003 185.001 250.986C185.518 249.963 186.239 249.168 187.165 248.599C188.092 248.026 189.18 247.739 190.43 247.739C191.237 247.739 191.998 247.869 192.714 248.131C193.435 248.386 194.072 248.784 194.623 249.324C195.18 249.864 195.617 250.551 195.935 251.386C196.254 252.216 196.413 253.205 196.413 254.352V255.298H185.683V253.219H193.455C193.45 252.628 193.322 252.102 193.072 251.642C192.822 251.176 192.472 250.81 192.023 250.543C191.58 250.276 191.063 250.142 190.472 250.142C189.842 250.142 189.288 250.295 188.81 250.602C188.333 250.903 187.961 251.301 187.694 251.795C187.433 252.284 187.299 252.821 187.293 253.406V255.222C187.293 255.983 187.433 256.636 187.711 257.182C187.989 257.722 188.379 258.136 188.879 258.426C189.379 258.71 189.964 258.852 190.634 258.852C191.083 258.852 191.489 258.79 191.853 258.665C192.217 258.534 192.532 258.344 192.799 258.094C193.066 257.844 193.268 257.534 193.404 257.165L196.285 257.489C196.103 258.25 195.756 258.915 195.245 259.483C194.739 260.045 194.092 260.483 193.302 260.795C192.512 261.102 191.609 261.256 190.592 261.256ZM211.607 247.909V250.295H203.868V247.909H211.607ZM205.803 261V246.673C205.803 245.793 205.984 245.06 206.348 244.474C206.717 243.889 207.212 243.452 207.831 243.162C208.45 242.872 209.138 242.727 209.893 242.727C210.428 242.727 210.902 242.77 211.317 242.855C211.732 242.94 212.038 243.017 212.237 243.085L211.624 245.472C211.493 245.432 211.328 245.392 211.129 245.352C210.93 245.307 210.709 245.284 210.464 245.284C209.891 245.284 209.484 245.423 209.246 245.702C209.013 245.974 208.896 246.366 208.896 246.878V261H205.803ZM214.023 261V247.909H217.108V261H214.023ZM215.574 246.051C215.085 246.051 214.665 245.889 214.312 245.565C213.96 245.236 213.784 244.841 213.784 244.381C213.784 243.915 213.96 243.52 214.312 243.196C214.665 242.866 215.085 242.702 215.574 242.702C216.068 242.702 216.489 242.866 216.835 243.196C217.188 243.52 217.364 243.915 217.364 244.381C217.364 244.841 217.188 245.236 216.835 245.565C216.489 245.889 216.068 246.051 215.574 246.051ZM223.366 253.33V261H220.281V247.909H223.229V250.134H223.383C223.684 249.401 224.164 248.818 224.823 248.386C225.488 247.955 226.309 247.739 227.286 247.739C228.19 247.739 228.977 247.932 229.647 248.318C230.323 248.705 230.846 249.264 231.215 249.997C231.59 250.73 231.775 251.619 231.769 252.665V261H228.684V253.142C228.684 252.267 228.457 251.582 228.002 251.088C227.553 250.594 226.931 250.347 226.136 250.347C225.596 250.347 225.116 250.466 224.695 250.705C224.281 250.937 223.954 251.276 223.715 251.719C223.482 252.162 223.366 252.699 223.366 253.33ZM240.701 261.256C239.388 261.256 238.255 260.983 237.3 260.438C236.352 259.886 235.621 259.108 235.11 258.102C234.599 257.091 234.343 255.901 234.343 254.531C234.343 253.185 234.599 252.003 235.11 250.986C235.627 249.963 236.349 249.168 237.275 248.599C238.201 248.026 239.289 247.739 240.539 247.739C241.346 247.739 242.107 247.869 242.823 248.131C243.545 248.386 244.181 248.784 244.732 249.324C245.289 249.864 245.727 250.551 246.045 251.386C246.363 252.216 246.522 253.205 246.522 254.352V255.298H235.792V253.219H243.565C243.559 252.628 243.431 252.102 243.181 251.642C242.931 251.176 242.582 250.81 242.133 250.543C241.69 250.276 241.173 250.142 240.582 250.142C239.951 250.142 239.397 250.295 238.92 250.602C238.442 250.903 238.07 251.301 237.803 251.795C237.542 252.284 237.408 252.821 237.403 253.406V255.222C237.403 255.983 237.542 256.636 237.82 257.182C238.099 257.722 238.488 258.136 238.988 258.426C239.488 258.71 240.073 258.852 240.744 258.852C241.192 258.852 241.599 258.79 241.962 258.665C242.326 258.534 242.641 258.344 242.908 258.094C243.175 257.844 243.377 257.534 243.513 257.165L246.394 257.489C246.212 258.25 245.866 258.915 245.354 259.483C244.849 260.045 244.201 260.483 243.411 260.795C242.621 261.102 241.718 261.256 240.701 261.256ZM259.479 251.369L256.666 251.676C256.587 251.392 256.447 251.125 256.249 250.875C256.055 250.625 255.794 250.423 255.464 250.27C255.135 250.116 254.732 250.04 254.254 250.04C253.612 250.04 253.072 250.179 252.635 250.457C252.203 250.736 251.99 251.097 251.996 251.54C251.99 251.92 252.129 252.23 252.413 252.469C252.703 252.707 253.18 252.903 253.845 253.057L256.078 253.534C257.317 253.801 258.237 254.224 258.839 254.804C259.447 255.384 259.754 256.142 259.76 257.08C259.754 257.903 259.513 258.631 259.036 259.261C258.564 259.886 257.908 260.375 257.067 260.727C256.226 261.08 255.26 261.256 254.169 261.256C252.567 261.256 251.277 260.92 250.3 260.25C249.322 259.574 248.74 258.634 248.553 257.429L251.561 257.139C251.697 257.73 251.987 258.176 252.43 258.477C252.874 258.778 253.45 258.929 254.161 258.929C254.893 258.929 255.482 258.778 255.925 258.477C256.374 258.176 256.598 257.804 256.598 257.361C256.598 256.986 256.453 256.676 256.163 256.432C255.879 256.187 255.436 256 254.834 255.869L252.601 255.401C251.345 255.139 250.416 254.699 249.814 254.08C249.212 253.455 248.913 252.665 248.919 251.71C248.913 250.903 249.132 250.205 249.575 249.614C250.024 249.017 250.646 248.557 251.442 248.233C252.243 247.903 253.166 247.739 254.212 247.739C255.746 247.739 256.953 248.065 257.834 248.719C258.72 249.372 259.268 250.256 259.479 251.369ZM268.841 247.909V250.295H261.315V247.909H268.841ZM263.173 244.773H266.259V257.062C266.259 257.477 266.321 257.795 266.446 258.017C266.577 258.233 266.747 258.381 266.957 258.46C267.168 258.54 267.401 258.58 267.656 258.58C267.849 258.58 268.026 258.565 268.185 258.537C268.349 258.509 268.474 258.483 268.56 258.46L269.08 260.872C268.915 260.929 268.679 260.991 268.372 261.06C268.071 261.128 267.702 261.168 267.264 261.179C266.491 261.202 265.795 261.085 265.176 260.83C264.557 260.568 264.065 260.165 263.702 259.619C263.344 259.074 263.168 258.392 263.173 257.574V244.773ZM283.085 261.256C281.778 261.256 280.656 260.969 279.718 260.395C278.786 259.821 278.067 259.028 277.562 258.017C277.062 257 276.812 255.83 276.812 254.506C276.812 253.176 277.067 252.003 277.579 250.986C278.09 249.963 278.812 249.168 279.744 248.599C280.681 248.026 281.789 247.739 283.067 247.739C284.13 247.739 285.07 247.935 285.888 248.327C286.712 248.713 287.369 249.261 287.857 249.972C288.346 250.676 288.624 251.5 288.692 252.443H285.744C285.624 251.812 285.34 251.287 284.891 250.866C284.448 250.44 283.854 250.227 283.11 250.227C282.479 250.227 281.925 250.398 281.448 250.739C280.971 251.074 280.599 251.557 280.332 252.188C280.07 252.818 279.94 253.574 279.94 254.455C279.94 255.347 280.07 256.114 280.332 256.756C280.593 257.392 280.96 257.884 281.431 258.23C281.908 258.571 282.468 258.741 283.11 258.741C283.565 258.741 283.971 258.656 284.329 258.486C284.692 258.31 284.996 258.057 285.241 257.727C285.485 257.398 285.653 256.997 285.744 256.526H288.692C288.619 257.452 288.346 258.273 287.874 258.989C287.403 259.699 286.761 260.256 285.948 260.659C285.136 261.057 284.181 261.256 283.085 261.256ZM296.936 261.256C295.658 261.256 294.55 260.974 293.612 260.412C292.675 259.849 291.947 259.062 291.43 258.051C290.919 257.04 290.663 255.858 290.663 254.506C290.663 253.153 290.919 251.969 291.43 250.952C291.947 249.935 292.675 249.145 293.612 248.582C294.55 248.02 295.658 247.739 296.936 247.739C298.214 247.739 299.322 248.02 300.26 248.582C301.197 249.145 301.922 249.935 302.433 250.952C302.95 251.969 303.209 253.153 303.209 254.506C303.209 255.858 302.95 257.04 302.433 258.051C301.922 259.062 301.197 259.849 300.26 260.412C299.322 260.974 298.214 261.256 296.936 261.256ZM296.953 258.784C297.646 258.784 298.226 258.594 298.692 258.213C299.158 257.827 299.504 257.31 299.732 256.662C299.964 256.014 300.081 255.293 300.081 254.497C300.081 253.696 299.964 252.972 299.732 252.324C299.504 251.67 299.158 251.151 298.692 250.764C298.226 250.378 297.646 250.185 296.953 250.185C296.243 250.185 295.652 250.378 295.18 250.764C294.714 251.151 294.365 251.67 294.132 252.324C293.905 252.972 293.791 253.696 293.791 254.497C293.791 255.293 293.905 256.014 294.132 256.662C294.365 257.31 294.714 257.827 295.18 258.213C295.652 258.594 296.243 258.784 296.953 258.784ZM308.913 253.33V261H305.827V247.909H308.776V250.134H308.93C309.231 249.401 309.711 248.818 310.37 248.386C311.035 247.955 311.856 247.739 312.833 247.739C313.737 247.739 314.523 247.932 315.194 248.318C315.87 248.705 316.393 249.264 316.762 249.997C317.137 250.73 317.322 251.619 317.316 252.665V261H314.231V253.142C314.231 252.267 314.004 251.582 313.549 251.088C313.1 250.594 312.478 250.347 311.683 250.347C311.143 250.347 310.663 250.466 310.242 250.705C309.827 250.937 309.501 251.276 309.262 251.719C309.029 252.162 308.913 252.699 308.913 253.33ZM330.799 251.369L327.987 251.676C327.907 251.392 327.768 251.125 327.569 250.875C327.376 250.625 327.114 250.423 326.785 250.27C326.455 250.116 326.052 250.04 325.575 250.04C324.933 250.04 324.393 250.179 323.955 250.457C323.523 250.736 323.31 251.097 323.316 251.54C323.31 251.92 323.45 252.23 323.734 252.469C324.023 252.707 324.501 252.903 325.165 253.057L327.398 253.534C328.637 253.801 329.558 254.224 330.16 254.804C330.768 255.384 331.075 256.142 331.08 257.08C331.075 257.903 330.833 258.631 330.356 259.261C329.884 259.886 329.228 260.375 328.387 260.727C327.546 261.08 326.58 261.256 325.489 261.256C323.887 261.256 322.597 260.92 321.62 260.25C320.643 259.574 320.06 258.634 319.873 257.429L322.881 257.139C323.018 257.73 323.308 258.176 323.751 258.477C324.194 258.778 324.771 258.929 325.481 258.929C326.214 258.929 326.802 258.778 327.245 258.477C327.694 258.176 327.918 257.804 327.918 257.361C327.918 256.986 327.773 256.676 327.484 256.432C327.2 256.187 326.756 256 326.154 255.869L323.921 255.401C322.665 255.139 321.737 254.699 321.134 254.08C320.532 253.455 320.234 252.665 320.239 251.71C320.234 250.903 320.452 250.205 320.896 249.614C321.344 249.017 321.967 248.557 322.762 248.233C323.563 247.903 324.487 247.739 325.532 247.739C327.066 247.739 328.273 248.065 329.154 248.719C330.04 249.372 330.589 250.256 330.799 251.369ZM340.161 247.909V250.295H332.636V247.909H340.161ZM334.494 244.773H337.579V257.062C337.579 257.477 337.641 257.795 337.766 258.017C337.897 258.233 338.067 258.381 338.278 258.46C338.488 258.54 338.721 258.58 338.977 258.58C339.17 258.58 339.346 258.565 339.505 258.537C339.67 258.509 339.795 258.483 339.88 258.46L340.4 260.872C340.235 260.929 339.999 260.991 339.692 261.06C339.391 261.128 339.022 261.168 338.585 261.179C337.812 261.202 337.116 261.085 336.496 260.83C335.877 260.568 335.386 260.165 335.022 259.619C334.664 259.074 334.488 258.392 334.494 257.574V244.773ZM342.741 261V247.909H345.733V250.091H345.869C346.108 249.335 346.517 248.753 347.097 248.344C347.682 247.929 348.349 247.722 349.099 247.722C349.27 247.722 349.46 247.73 349.67 247.747C349.886 247.759 350.065 247.778 350.207 247.807V250.645C350.077 250.599 349.869 250.56 349.585 250.526C349.307 250.486 349.037 250.466 348.776 250.466C348.213 250.466 347.707 250.588 347.259 250.832C346.815 251.071 346.466 251.403 346.21 251.83C345.955 252.256 345.827 252.747 345.827 253.304V261H342.741ZM360.601 255.494V247.909H363.686V261H360.695V258.673H360.558C360.263 259.406 359.777 260.006 359.101 260.472C358.43 260.937 357.604 261.17 356.621 261.17C355.763 261.17 355.004 260.98 354.345 260.599C353.692 260.213 353.18 259.653 352.811 258.92C352.442 258.182 352.257 257.29 352.257 256.244V247.909H355.342V255.767C355.342 256.597 355.57 257.256 356.024 257.744C356.479 258.233 357.075 258.477 357.814 258.477C358.268 258.477 358.709 258.366 359.135 258.145C359.561 257.923 359.911 257.594 360.183 257.156C360.462 256.713 360.601 256.159 360.601 255.494ZM372.569 261.256C371.262 261.256 370.14 260.969 369.202 260.395C368.271 259.821 367.552 259.028 367.046 258.017C366.546 257 366.296 255.83 366.296 254.506C366.296 253.176 366.552 252.003 367.063 250.986C367.575 249.963 368.296 249.168 369.228 248.599C370.165 248.026 371.273 247.739 372.552 247.739C373.614 247.739 374.555 247.935 375.373 248.327C376.197 248.713 376.853 249.261 377.342 249.972C377.83 250.676 378.109 251.5 378.177 252.443H375.228C375.109 251.812 374.825 251.287 374.376 250.866C373.933 250.44 373.339 250.227 372.594 250.227C371.964 250.227 371.41 250.398 370.933 250.739C370.455 251.074 370.083 251.557 369.816 252.188C369.555 252.818 369.424 253.574 369.424 254.455C369.424 255.347 369.555 256.114 369.816 256.756C370.077 257.392 370.444 257.884 370.915 258.23C371.393 258.571 371.952 258.741 372.594 258.741C373.049 258.741 373.455 258.656 373.813 258.486C374.177 258.31 374.481 258.057 374.725 257.727C374.969 257.398 375.137 256.997 375.228 256.526H378.177C378.103 257.452 377.83 258.273 377.359 258.989C376.887 259.699 376.245 260.256 375.433 260.659C374.62 261.057 373.665 261.256 372.569 261.256ZM387.247 247.909V250.295H379.722V247.909H387.247ZM381.58 244.773H384.665V257.062C384.665 257.477 384.727 257.795 384.852 258.017C384.983 258.233 385.153 258.381 385.364 258.46C385.574 258.54 385.807 258.58 386.062 258.58C386.256 258.58 386.432 258.565 386.591 258.537C386.756 258.509 386.881 258.483 386.966 258.46L387.486 260.872C387.321 260.929 387.085 260.991 386.778 261.06C386.477 261.128 386.108 261.168 385.67 261.179C384.898 261.202 384.202 261.085 383.582 260.83C382.963 260.568 382.472 260.165 382.108 259.619C381.75 259.074 381.574 258.392 381.58 257.574V244.773ZM389.827 261V247.909H392.913V261H389.827ZM391.379 246.051C390.89 246.051 390.469 245.889 390.117 245.565C389.765 245.236 389.589 244.841 389.589 244.381C389.589 243.915 389.765 243.52 390.117 243.196C390.469 242.866 390.89 242.702 391.379 242.702C391.873 242.702 392.293 242.866 392.64 243.196C392.992 243.52 393.168 243.915 393.168 244.381C393.168 244.841 392.992 245.236 392.64 245.565C392.293 245.889 391.873 246.051 391.379 246.051ZM401.795 261.256C400.517 261.256 399.409 260.974 398.472 260.412C397.534 259.849 396.807 259.062 396.29 258.051C395.778 257.04 395.523 255.858 395.523 254.506C395.523 253.153 395.778 251.969 396.29 250.952C396.807 249.935 397.534 249.145 398.472 248.582C399.409 248.02 400.517 247.739 401.795 247.739C403.074 247.739 404.182 248.02 405.119 248.582C406.057 249.145 406.781 249.935 407.293 250.952C407.81 251.969 408.068 253.153 408.068 254.506C408.068 255.858 407.81 257.04 407.293 258.051C406.781 259.062 406.057 259.849 405.119 260.412C404.182 260.974 403.074 261.256 401.795 261.256ZM401.812 258.784C402.506 258.784 403.085 258.594 403.551 258.213C404.017 257.827 404.364 257.31 404.591 256.662C404.824 256.014 404.94 255.293 404.94 254.497C404.94 253.696 404.824 252.972 404.591 252.324C404.364 251.67 404.017 251.151 403.551 250.764C403.085 250.378 402.506 250.185 401.812 250.185C401.102 250.185 400.511 250.378 400.04 250.764C399.574 251.151 399.224 251.67 398.991 252.324C398.764 252.972 398.651 253.696 398.651 254.497C398.651 255.293 398.764 256.014 398.991 256.662C399.224 257.31 399.574 257.827 400.04 258.213C400.511 258.594 401.102 258.784 401.812 258.784ZM413.772 253.33V261H410.687V247.909H413.636V250.134H413.789C414.09 249.401 414.57 248.818 415.229 248.386C415.894 247.955 416.715 247.739 417.692 247.739C418.596 247.739 419.383 247.932 420.053 248.318C420.729 248.705 421.252 249.264 421.621 249.997C421.996 250.73 422.181 251.619 422.175 252.665V261H419.09V253.142C419.09 252.267 418.863 251.582 418.408 251.088C417.96 250.594 417.337 250.347 416.542 250.347C416.002 250.347 415.522 250.466 415.102 250.705C414.687 250.937 414.36 251.276 414.121 251.719C413.888 252.162 413.772 252.699 413.772 253.33ZM43.3807 290.256C42.0682 290.256 40.9347 289.983 39.9801 289.438C39.0313 288.886 38.3011 288.108 37.7898 287.102C37.2784 286.091 37.0227 284.901 37.0227 283.531C37.0227 282.185 37.2784 281.003 37.7898 279.986C38.3068 278.963 39.0284 278.168 39.9545 277.599C40.8807 277.026 41.9688 276.739 43.2188 276.739C44.0256 276.739 44.7869 276.869 45.5028 277.131C46.2244 277.386 46.8608 277.784 47.4119 278.324C47.9688 278.864 48.4063 279.551 48.7244 280.386C49.0426 281.216 49.2017 282.205 49.2017 283.352V284.298H38.4716V282.219H46.2443C46.2386 281.628 46.1108 281.102 45.8608 280.642C45.6108 280.176 45.2614 279.81 44.8125 279.543C44.3693 279.276 43.8523 279.142 43.2614 279.142C42.6307 279.142 42.0767 279.295 41.5994 279.602C41.1222 279.903 40.75 280.301 40.483 280.795C40.2216 281.284 40.0881 281.821 40.0824 282.406V284.222C40.0824 284.983 40.2216 285.636 40.5 286.182C40.7784 286.722 41.1676 287.136 41.6676 287.426C42.1676 287.71 42.7528 287.852 43.4233 287.852C43.8722 287.852 44.2784 287.79 44.642 287.665C45.0057 287.534 45.321 287.344 45.5881 287.094C45.8551 286.844 46.0568 286.534 46.1932 286.165L49.0739 286.489C48.892 287.25 48.5455 287.915 48.0341 288.483C47.5284 289.045 46.8807 289.483 46.0909 289.795C45.3011 290.102 44.3977 290.256 43.3807 290.256ZM62.1584 280.369L59.3459 280.676C59.2663 280.392 59.1271 280.125 58.9283 279.875C58.7351 279.625 58.4737 279.423 58.1442 279.27C57.8146 279.116 57.4112 279.04 56.9339 279.04C56.2919 279.04 55.7521 279.179 55.3146 279.457C54.8828 279.736 54.6697 280.097 54.6754 280.54C54.6697 280.92 54.8089 281.23 55.093 281.469C55.3828 281.707 55.8601 281.903 56.5249 282.057L58.7578 282.534C59.9964 282.801 60.9169 283.224 61.5192 283.804C62.1271 284.384 62.4339 285.142 62.4396 286.08C62.4339 286.903 62.1925 287.631 61.7152 288.261C61.2436 288.886 60.5874 289.375 59.7464 289.727C58.9055 290.08 57.9396 290.256 56.8487 290.256C55.2464 290.256 53.9567 289.92 52.9794 289.25C52.0021 288.574 51.4197 287.634 51.2322 286.429L54.2408 286.139C54.3771 286.73 54.6669 287.176 55.1101 287.477C55.5533 287.778 56.13 287.929 56.8402 287.929C57.5732 287.929 58.1612 287.778 58.6044 287.477C59.0533 287.176 59.2777 286.804 59.2777 286.361C59.2777 285.986 59.1328 285.676 58.843 285.432C58.5589 285.187 58.1158 285 57.5135 284.869L55.2805 284.401C54.0249 284.139 53.0959 283.699 52.4936 283.08C51.8913 282.455 51.593 281.665 51.5987 280.71C51.593 279.903 51.8118 279.205 52.255 278.614C52.7038 278.017 53.326 277.557 54.1214 277.233C54.9226 276.903 55.8459 276.739 56.8913 276.739C58.4254 276.739 59.6328 277.065 60.5135 277.719C61.3999 278.372 61.9482 279.256 62.1584 280.369ZM75.3303 280.369L72.5178 280.676C72.4382 280.392 72.299 280.125 72.1001 279.875C71.907 279.625 71.6456 279.423 71.3161 279.27C70.9865 279.116 70.5831 279.04 70.1058 279.04C69.4638 279.04 68.924 279.179 68.4865 279.457C68.0547 279.736 67.8416 280.097 67.8473 280.54C67.8416 280.92 67.9808 281.23 68.2649 281.469C68.5547 281.707 69.032 281.903 69.6967 282.057L71.9297 282.534C73.1683 282.801 74.0888 283.224 74.6911 283.804C75.299 284.384 75.6058 285.142 75.6115 286.08C75.6058 286.903 75.3643 287.631 74.8871 288.261C74.4155 288.886 73.7592 289.375 72.9183 289.727C72.0774 290.08 71.1115 290.256 70.0206 290.256C68.4183 290.256 67.1286 289.92 66.1513 289.25C65.174 288.574 64.5916 287.634 64.4041 286.429L67.4126 286.139C67.549 286.73 67.8388 287.176 68.282 287.477C68.7251 287.778 69.3018 287.929 70.0121 287.929C70.745 287.929 71.3331 287.778 71.7763 287.477C72.2251 287.176 72.4496 286.804 72.4496 286.361C72.4496 285.986 72.3047 285.676 72.0149 285.432C71.7308 285.187 71.2876 285 70.6854 284.869L68.4524 284.401C67.1967 284.139 66.2678 283.699 65.6655 283.08C65.0632 282.455 64.7649 281.665 64.7706 280.71C64.7649 279.903 64.9837 279.205 65.4268 278.614C65.8757 278.017 66.4979 277.557 67.2933 277.233C68.0945 276.903 69.0178 276.739 70.0632 276.739C71.5973 276.739 72.8047 277.065 73.6854 277.719C74.5717 278.372 75.12 279.256 75.3303 280.369ZM83.951 290.256C82.6385 290.256 81.505 289.983 80.5504 289.438C79.6016 288.886 78.8714 288.108 78.3601 287.102C77.8487 286.091 77.593 284.901 77.593 283.531C77.593 282.185 77.8487 281.003 78.3601 279.986C78.8771 278.963 79.5987 278.168 80.5249 277.599C81.451 277.026 82.5391 276.739 83.7891 276.739C84.5959 276.739 85.3572 276.869 86.0732 277.131C86.7947 277.386 87.4311 277.784 87.9822 278.324C88.5391 278.864 88.9766 279.551 89.2947 280.386C89.6129 281.216 89.772 282.205 89.772 283.352V284.298H79.0419V282.219H86.8146C86.8089 281.628 86.6811 281.102 86.4311 280.642C86.1811 280.176 85.8317 279.81 85.3828 279.543C84.9396 279.276 84.4226 279.142 83.8317 279.142C83.201 279.142 82.647 279.295 82.1697 279.602C81.6925 279.903 81.3203 280.301 81.0533 280.795C80.7919 281.284 80.6584 281.821 80.6527 282.406V284.222C80.6527 284.983 80.7919 285.636 81.0703 286.182C81.3487 286.722 81.7379 287.136 82.2379 287.426C82.7379 287.71 83.3232 287.852 83.9936 287.852C84.4425 287.852 84.8487 287.79 85.2124 287.665C85.576 287.534 85.8913 287.344 86.1584 287.094C86.4254 286.844 86.6271 286.534 86.7635 286.165L89.6442 286.489C89.4624 287.25 89.1158 287.915 88.6044 288.483C88.0987 289.045 87.451 289.483 86.6612 289.795C85.8714 290.102 84.968 290.256 83.951 290.256ZM95.4673 282.33V290H92.3821V276.909H95.331V279.134H95.4844C95.7855 278.401 96.2656 277.818 96.9247 277.386C97.5895 276.955 98.4105 276.739 99.3878 276.739C100.291 276.739 101.078 276.932 101.749 277.318C102.425 277.705 102.947 278.264 103.317 278.997C103.692 279.73 103.876 280.619 103.871 281.665V290H100.786V282.142C100.786 281.267 100.558 280.582 100.104 280.088C99.6548 279.594 99.0327 279.347 98.2372 279.347C97.6974 279.347 97.2173 279.466 96.7969 279.705C96.3821 279.937 96.0554 280.276 95.8168 280.719C95.5838 281.162 95.4673 281.699 95.4673 282.33ZM113.544 276.909V279.295H106.018V276.909H113.544ZM107.876 273.773H110.962V286.062C110.962 286.477 111.024 286.795 111.149 287.017C111.28 287.233 111.45 287.381 111.661 287.46C111.871 287.54 112.104 287.58 112.359 287.58C112.553 287.58 112.729 287.565 112.888 287.537C113.053 287.509 113.178 287.483 113.263 287.46L113.783 289.872C113.618 289.929 113.382 289.991 113.075 290.06C112.774 290.128 112.405 290.168 111.967 290.179C111.195 290.202 110.499 290.085 109.879 289.83C109.26 289.568 108.768 289.165 108.405 288.619C108.047 288.074 107.871 287.392 107.876 286.574V273.773ZM116.124 290V276.909H119.21V290H116.124ZM117.675 275.051C117.187 275.051 116.766 274.889 116.414 274.565C116.062 274.236 115.886 273.841 115.886 273.381C115.886 272.915 116.062 272.52 116.414 272.196C116.766 271.866 117.187 271.702 117.675 271.702C118.17 271.702 118.59 271.866 118.937 272.196C119.289 272.52 119.465 272.915 119.465 273.381C119.465 273.841 119.289 274.236 118.937 274.565C118.59 274.889 118.17 275.051 117.675 275.051ZM126.149 290.264C125.32 290.264 124.572 290.116 123.908 289.821C123.249 289.52 122.726 289.077 122.339 288.491C121.959 287.906 121.768 287.185 121.768 286.327C121.768 285.588 121.905 284.977 122.178 284.494C122.45 284.011 122.822 283.625 123.294 283.335C123.766 283.045 124.297 282.827 124.888 282.679C125.484 282.526 126.101 282.415 126.737 282.347C127.504 282.267 128.126 282.196 128.604 282.134C129.081 282.065 129.428 281.963 129.643 281.827C129.865 281.685 129.976 281.466 129.976 281.17V281.119C129.976 280.477 129.786 279.98 129.405 279.628C129.024 279.276 128.476 279.099 127.76 279.099C127.004 279.099 126.405 279.264 125.962 279.594C125.524 279.923 125.229 280.312 125.075 280.761L122.195 280.352C122.422 279.557 122.797 278.892 123.32 278.358C123.842 277.818 124.482 277.415 125.237 277.148C125.993 276.875 126.828 276.739 127.743 276.739C128.374 276.739 129.001 276.812 129.626 276.96C130.251 277.108 130.822 277.352 131.339 277.693C131.857 278.028 132.271 278.486 132.584 279.065C132.902 279.645 133.061 280.369 133.061 281.239V290H130.095V288.202H129.993C129.805 288.565 129.541 288.906 129.2 289.224C128.865 289.537 128.442 289.79 127.93 289.983C127.425 290.17 126.831 290.264 126.149 290.264ZM126.95 287.997C127.57 287.997 128.107 287.875 128.561 287.631C129.016 287.381 129.365 287.051 129.609 286.642C129.859 286.233 129.984 285.787 129.984 285.304V283.761C129.888 283.841 129.723 283.915 129.49 283.983C129.263 284.051 129.007 284.111 128.723 284.162C128.439 284.213 128.158 284.259 127.879 284.298C127.601 284.338 127.359 284.372 127.155 284.401C126.695 284.463 126.283 284.565 125.919 284.707C125.555 284.849 125.268 285.048 125.058 285.304C124.848 285.554 124.743 285.878 124.743 286.276C124.743 286.844 124.95 287.273 125.365 287.562C125.78 287.852 126.308 287.997 126.95 287.997ZM139.249 272.545V290H136.163V272.545H139.249ZM152.768 280.369L149.955 280.676C149.876 280.392 149.737 280.125 149.538 279.875C149.344 279.625 149.083 279.423 148.754 279.27C148.424 279.116 148.021 279.04 147.543 279.04C146.901 279.04 146.362 279.179 145.924 279.457C145.492 279.736 145.279 280.097 145.285 280.54C145.279 280.92 145.418 281.23 145.702 281.469C145.992 281.707 146.469 281.903 147.134 282.057L149.367 282.534C150.606 282.801 151.526 283.224 152.129 283.804C152.737 284.384 153.043 285.142 153.049 286.08C153.043 286.903 152.802 287.631 152.325 288.261C151.853 288.886 151.197 289.375 150.356 289.727C149.515 290.08 148.549 290.256 147.458 290.256C145.856 290.256 144.566 289.92 143.589 289.25C142.612 288.574 142.029 287.634 141.842 286.429L144.85 286.139C144.987 286.73 145.276 287.176 145.719 287.477C146.163 287.778 146.739 287.929 147.45 287.929C148.183 287.929 148.771 287.778 149.214 287.477C149.663 287.176 149.887 286.804 149.887 286.361C149.887 285.986 149.742 285.676 149.452 285.432C149.168 285.187 148.725 285 148.123 284.869L145.89 284.401C144.634 284.139 143.705 283.699 143.103 283.08C142.501 282.455 142.202 281.665 142.208 280.71C142.202 279.903 142.421 279.205 142.864 278.614C143.313 278.017 143.935 277.557 144.731 277.233C145.532 276.903 146.455 276.739 147.501 276.739C149.035 276.739 150.242 277.065 151.123 277.719C152.009 278.372 152.558 279.256 152.768 280.369ZM161.546 290V276.909H164.538V279.091H164.674C164.913 278.335 165.322 277.753 165.901 277.344C166.487 276.929 167.154 276.722 167.904 276.722C168.075 276.722 168.265 276.73 168.475 276.747C168.691 276.759 168.87 276.778 169.012 276.807V279.645C168.881 279.599 168.674 279.56 168.39 279.526C168.112 279.486 167.842 279.466 167.58 279.466C167.018 279.466 166.512 279.588 166.063 279.832C165.62 280.071 165.271 280.403 165.015 280.83C164.759 281.256 164.631 281.747 164.631 282.304V290H161.546ZM171.062 290V276.909H174.147V290H171.062ZM172.613 275.051C172.124 275.051 171.704 274.889 171.352 274.565C170.999 274.236 170.823 273.841 170.823 273.381C170.823 272.915 170.999 272.52 171.352 272.196C171.704 271.866 172.124 271.702 172.613 271.702C173.107 271.702 173.528 271.866 173.874 272.196C174.227 272.52 174.403 272.915 174.403 273.381C174.403 273.841 174.227 274.236 173.874 274.565C173.528 274.889 173.107 275.051 172.613 275.051ZM183.013 295.182C181.905 295.182 180.953 295.031 180.158 294.73C179.362 294.435 178.723 294.037 178.24 293.537C177.757 293.037 177.422 292.483 177.234 291.875L180.013 291.202C180.138 291.457 180.32 291.71 180.558 291.96C180.797 292.216 181.118 292.426 181.521 292.591C181.93 292.761 182.445 292.847 183.064 292.847C183.939 292.847 184.663 292.634 185.237 292.207C185.811 291.787 186.098 291.094 186.098 290.128V287.648H185.945C185.786 287.966 185.553 288.293 185.246 288.628C184.945 288.963 184.544 289.244 184.044 289.472C183.55 289.699 182.928 289.812 182.178 289.812C181.172 289.812 180.26 289.577 179.442 289.105C178.629 288.628 177.982 287.918 177.499 286.974C177.021 286.026 176.783 284.838 176.783 283.412C176.783 281.974 177.021 280.761 177.499 279.773C177.982 278.778 178.632 278.026 179.45 277.514C180.268 276.997 181.18 276.739 182.186 276.739C182.953 276.739 183.584 276.869 184.078 277.131C184.578 277.386 184.976 277.696 185.271 278.06C185.567 278.418 185.791 278.756 185.945 279.074H186.115V276.909H189.158V290.213C189.158 291.332 188.891 292.259 188.357 292.991C187.822 293.724 187.092 294.273 186.166 294.636C185.24 295 184.189 295.182 183.013 295.182ZM183.038 287.392C183.692 287.392 184.249 287.233 184.709 286.915C185.169 286.597 185.518 286.139 185.757 285.543C185.996 284.946 186.115 284.23 186.115 283.395C186.115 282.571 185.996 281.849 185.757 281.23C185.524 280.611 185.178 280.131 184.717 279.79C184.263 279.443 183.703 279.27 183.038 279.27C182.351 279.27 181.777 279.449 181.317 279.807C180.857 280.165 180.51 280.656 180.277 281.281C180.044 281.901 179.928 282.605 179.928 283.395C179.928 284.196 180.044 284.898 180.277 285.5C180.516 286.097 180.865 286.562 181.325 286.898C181.791 287.227 182.362 287.392 183.038 287.392ZM195.405 282.33V290H192.32V272.545H195.337V279.134H195.49C195.797 278.395 196.271 277.812 196.913 277.386C197.561 276.955 198.385 276.739 199.385 276.739C200.294 276.739 201.087 276.929 201.763 277.31C202.439 277.69 202.962 278.247 203.331 278.98C203.706 279.713 203.893 280.608 203.893 281.665V290H200.808V282.142C200.808 281.261 200.581 280.577 200.126 280.088C199.678 279.594 199.047 279.347 198.234 279.347C197.689 279.347 197.2 279.466 196.768 279.705C196.342 279.937 196.007 280.276 195.763 280.719C195.524 281.162 195.405 281.699 195.405 282.33ZM213.575 276.909V279.295H206.05V276.909H213.575ZM207.908 273.773H210.993V286.062C210.993 286.477 211.055 286.795 211.18 287.017C211.311 287.233 211.482 287.381 211.692 287.46C211.902 287.54 212.135 287.58 212.391 287.58C212.584 287.58 212.76 287.565 212.919 287.537C213.084 287.509 213.209 287.483 213.294 287.46L213.814 289.872C213.649 289.929 213.413 289.991 213.107 290.06C212.805 290.128 212.436 290.168 211.999 290.179C211.226 290.202 210.53 290.085 209.911 289.83C209.291 289.568 208.8 289.165 208.436 288.619C208.078 288.074 207.902 287.392 207.908 286.574V273.773ZM228.646 276.909V279.295H221.12V276.909H228.646ZM222.978 273.773H226.063V286.062C226.063 286.477 226.126 286.795 226.251 287.017C226.381 287.233 226.552 287.381 226.762 287.46C226.972 287.54 227.205 287.58 227.461 287.58C227.654 287.58 227.83 287.565 227.989 287.537C228.154 287.509 228.279 287.483 228.364 287.46L228.884 289.872C228.719 289.929 228.484 289.991 228.177 290.06C227.876 290.128 227.506 290.168 227.069 290.179C226.296 290.202 225.6 290.085 224.981 289.83C224.362 289.568 223.87 289.165 223.506 288.619C223.148 288.074 222.972 287.392 222.978 286.574V273.773ZM236.795 290.256C235.517 290.256 234.409 289.974 233.472 289.412C232.534 288.849 231.807 288.062 231.29 287.051C230.778 286.04 230.523 284.858 230.523 283.506C230.523 282.153 230.778 280.969 231.29 279.952C231.807 278.935 232.534 278.145 233.472 277.582C234.409 277.02 235.517 276.739 236.795 276.739C238.074 276.739 239.182 277.02 240.119 277.582C241.057 278.145 241.781 278.935 242.293 279.952C242.81 280.969 243.068 282.153 243.068 283.506C243.068 284.858 242.81 286.04 242.293 287.051C241.781 288.062 241.057 288.849 240.119 289.412C239.182 289.974 238.074 290.256 236.795 290.256ZM236.812 287.784C237.506 287.784 238.085 287.594 238.551 287.213C239.017 286.827 239.364 286.31 239.591 285.662C239.824 285.014 239.94 284.293 239.94 283.497C239.94 282.696 239.824 281.972 239.591 281.324C239.364 280.67 239.017 280.151 238.551 279.764C238.085 279.378 237.506 279.185 236.812 279.185C236.102 279.185 235.511 279.378 235.04 279.764C234.574 280.151 234.224 280.67 233.991 281.324C233.764 281.972 233.651 282.696 233.651 283.497C233.651 284.293 233.764 285.014 233.991 285.662C234.224 286.31 234.574 286.827 235.04 287.213C235.511 287.594 236.102 287.784 236.812 287.784ZM253.558 294.909C253.137 294.909 252.748 294.875 252.39 294.807C252.038 294.744 251.756 294.67 251.546 294.585L252.262 292.182C252.711 292.313 253.112 292.375 253.464 292.369C253.816 292.364 254.126 292.253 254.393 292.037C254.665 291.827 254.896 291.474 255.083 290.98L255.347 290.273L250.6 276.909H253.873L256.89 286.795H257.026L260.052 276.909H263.333L258.092 291.585C257.847 292.278 257.523 292.872 257.12 293.366C256.717 293.866 256.222 294.247 255.637 294.509C255.058 294.776 254.364 294.909 253.558 294.909ZM270.733 290.256C269.455 290.256 268.347 289.974 267.409 289.412C266.472 288.849 265.744 288.062 265.227 287.051C264.716 286.04 264.46 284.858 264.46 283.506C264.46 282.153 264.716 280.969 265.227 279.952C265.744 278.935 266.472 278.145 267.409 277.582C268.347 277.02 269.455 276.739 270.733 276.739C272.011 276.739 273.119 277.02 274.057 277.582C274.994 278.145 275.719 278.935 276.23 279.952C276.747 280.969 277.006 282.153 277.006 283.506C277.006 284.858 276.747 286.04 276.23 287.051C275.719 288.062 274.994 288.849 274.057 289.412C273.119 289.974 272.011 290.256 270.733 290.256ZM270.75 287.784C271.443 287.784 272.023 287.594 272.489 287.213C272.955 286.827 273.301 286.31 273.528 285.662C273.761 285.014 273.878 284.293 273.878 283.497C273.878 282.696 273.761 281.972 273.528 281.324C273.301 280.67 272.955 280.151 272.489 279.764C272.023 279.378 271.443 279.185 270.75 279.185C270.04 279.185 269.449 279.378 268.977 279.764C268.511 280.151 268.162 280.67 267.929 281.324C267.702 281.972 267.588 282.696 267.588 283.497C267.588 284.293 267.702 285.014 267.929 285.662C268.162 286.31 268.511 286.827 268.977 287.213C269.449 287.594 270.04 287.784 270.75 287.784ZM287.968 284.494V276.909H291.053V290H288.062V287.673H287.925C287.63 288.406 287.144 289.006 286.468 289.472C285.798 289.937 284.971 290.17 283.988 290.17C283.13 290.17 282.371 289.98 281.712 289.599C281.059 289.213 280.548 288.653 280.178 287.92C279.809 287.182 279.624 286.29 279.624 285.244V276.909H282.71V284.767C282.71 285.597 282.937 286.256 283.391 286.744C283.846 287.233 284.442 287.477 285.181 287.477C285.636 287.477 286.076 287.366 286.502 287.145C286.928 286.923 287.278 286.594 287.55 286.156C287.829 285.713 287.968 285.159 287.968 284.494ZM294.226 290V276.909H297.217V279.091H297.354C297.592 278.335 298.001 277.753 298.581 277.344C299.166 276.929 299.834 276.722 300.584 276.722C300.754 276.722 300.945 276.73 301.155 276.747C301.371 276.759 301.55 276.778 301.692 276.807V279.645C301.561 279.599 301.354 279.56 301.07 279.526C300.791 279.486 300.521 279.466 300.26 279.466C299.697 279.466 299.192 279.588 298.743 279.832C298.3 280.071 297.95 280.403 297.695 280.83C297.439 281.256 297.311 281.747 297.311 282.304V290H294.226ZM309.695 294.909V276.909H312.729V279.074H312.908C313.067 278.756 313.291 278.418 313.581 278.06C313.871 277.696 314.263 277.386 314.757 277.131C315.251 276.869 315.882 276.739 316.649 276.739C317.661 276.739 318.572 276.997 319.385 277.514C320.203 278.026 320.851 278.784 321.328 279.79C321.811 280.79 322.053 282.017 322.053 283.472C322.053 284.909 321.817 286.131 321.345 287.136C320.874 288.142 320.232 288.909 319.419 289.438C318.607 289.966 317.686 290.23 316.658 290.23C315.908 290.23 315.286 290.105 314.791 289.855C314.297 289.605 313.899 289.304 313.598 288.952C313.303 288.594 313.072 288.256 312.908 287.938H312.78V294.909H309.695ZM312.72 283.455C312.72 284.301 312.839 285.043 313.078 285.679C313.322 286.315 313.672 286.812 314.126 287.17C314.587 287.523 315.143 287.699 315.797 287.699C316.479 287.699 317.05 287.517 317.51 287.153C317.97 286.784 318.317 286.281 318.55 285.645C318.788 285.003 318.908 284.273 318.908 283.455C318.908 282.642 318.791 281.92 318.558 281.29C318.325 280.659 317.979 280.165 317.518 279.807C317.058 279.449 316.484 279.27 315.797 279.27C315.138 279.27 314.578 279.443 314.118 279.79C313.658 280.136 313.308 280.622 313.07 281.247C312.837 281.872 312.72 282.608 312.72 283.455ZM324.695 290V276.909H327.686V279.091H327.822C328.061 278.335 328.47 277.753 329.05 277.344C329.635 276.929 330.303 276.722 331.053 276.722C331.223 276.722 331.413 276.73 331.624 276.747C331.839 276.759 332.018 276.778 332.161 276.807V279.645C332.03 279.599 331.822 279.56 331.538 279.526C331.26 279.486 330.99 279.466 330.729 279.466C330.166 279.466 329.661 279.588 329.212 279.832C328.768 280.071 328.419 280.403 328.163 280.83C327.908 281.256 327.78 281.747 327.78 282.304V290H324.695ZM339.381 290.256C338.103 290.256 336.995 289.974 336.058 289.412C335.12 288.849 334.393 288.062 333.876 287.051C333.364 286.04 333.109 284.858 333.109 283.506C333.109 282.153 333.364 280.969 333.876 279.952C334.393 278.935 335.12 278.145 336.058 277.582C336.995 277.02 338.103 276.739 339.381 276.739C340.66 276.739 341.768 277.02 342.705 277.582C343.643 278.145 344.367 278.935 344.879 279.952C345.396 280.969 345.654 282.153 345.654 283.506C345.654 284.858 345.396 286.04 344.879 287.051C344.367 288.062 343.643 288.849 342.705 289.412C341.768 289.974 340.66 290.256 339.381 290.256ZM339.398 287.784C340.092 287.784 340.671 287.594 341.137 287.213C341.603 286.827 341.95 286.31 342.177 285.662C342.41 285.014 342.526 284.293 342.526 283.497C342.526 282.696 342.41 281.972 342.177 281.324C341.95 280.67 341.603 280.151 341.137 279.764C340.671 279.378 340.092 279.185 339.398 279.185C338.688 279.185 338.097 279.378 337.626 279.764C337.16 280.151 336.81 280.67 336.577 281.324C336.35 281.972 336.237 282.696 336.237 283.497C336.237 284.293 336.35 285.014 336.577 285.662C336.81 286.31 337.16 286.827 337.626 287.213C338.097 287.594 338.688 287.784 339.398 287.784ZM348.273 276.909H351.358V290.75C351.358 291.693 351.179 292.472 350.821 293.085C350.463 293.699 349.946 294.156 349.27 294.457C348.594 294.759 347.773 294.909 346.807 294.909C346.693 294.909 346.588 294.906 346.491 294.901C346.395 294.901 346.29 294.898 346.176 294.892V292.378C346.261 292.384 346.338 292.386 346.406 292.386C346.474 292.392 346.545 292.395 346.619 292.395C347.21 292.395 347.634 292.25 347.889 291.96C348.145 291.676 348.273 291.259 348.273 290.707V276.909ZM349.807 275.051C349.313 275.051 348.889 274.889 348.537 274.565C348.19 274.236 348.017 273.841 348.017 273.381C348.017 272.915 348.19 272.52 348.537 272.196C348.889 271.866 349.313 271.702 349.807 271.702C350.295 271.702 350.713 271.866 351.06 272.196C351.412 272.52 351.588 272.915 351.588 273.381C351.588 273.841 351.412 274.236 351.06 274.565C350.713 274.889 350.295 275.051 349.807 275.051ZM360.326 290.256C359.013 290.256 357.88 289.983 356.925 289.438C355.977 288.886 355.246 288.108 354.735 287.102C354.224 286.091 353.968 284.901 353.968 283.531C353.968 282.185 354.224 281.003 354.735 279.986C355.252 278.963 355.974 278.168 356.9 277.599C357.826 277.026 358.914 276.739 360.164 276.739C360.971 276.739 361.732 276.869 362.448 277.131C363.17 277.386 363.806 277.784 364.357 278.324C364.914 278.864 365.352 279.551 365.67 280.386C365.988 281.216 366.147 282.205 366.147 283.352V284.298H355.417V282.219H363.19C363.184 281.628 363.056 281.102 362.806 280.642C362.556 280.176 362.207 279.81 361.758 279.543C361.315 279.276 360.798 279.142 360.207 279.142C359.576 279.142 359.022 279.295 358.545 279.602C358.067 279.903 357.695 280.301 357.428 280.795C357.167 281.284 357.033 281.821 357.028 282.406V284.222C357.028 284.983 357.167 285.636 357.445 286.182C357.724 286.722 358.113 287.136 358.613 287.426C359.113 287.71 359.698 287.852 360.369 287.852C360.817 287.852 361.224 287.79 361.587 287.665C361.951 287.534 362.266 287.344 362.533 287.094C362.8 286.844 363.002 286.534 363.138 286.165L366.019 286.489C365.837 287.25 365.491 287.915 364.979 288.483C364.474 289.045 363.826 289.483 363.036 289.795C362.246 290.102 361.343 290.256 360.326 290.256ZM374.467 290.256C373.161 290.256 372.038 289.969 371.101 289.395C370.169 288.821 369.45 288.028 368.945 287.017C368.445 286 368.195 284.83 368.195 283.506C368.195 282.176 368.45 281.003 368.962 279.986C369.473 278.963 370.195 278.168 371.126 277.599C372.064 277.026 373.172 276.739 374.45 276.739C375.513 276.739 376.453 276.935 377.271 277.327C378.095 277.713 378.751 278.261 379.24 278.972C379.729 279.676 380.007 280.5 380.075 281.443H377.126C377.007 280.812 376.723 280.287 376.274 279.866C375.831 279.44 375.237 279.227 374.493 279.227C373.862 279.227 373.308 279.398 372.831 279.739C372.354 280.074 371.982 280.557 371.714 281.188C371.453 281.818 371.322 282.574 371.322 283.455C371.322 284.347 371.453 285.114 371.714 285.756C371.976 286.392 372.342 286.884 372.814 287.23C373.291 287.571 373.851 287.741 374.493 287.741C374.947 287.741 375.354 287.656 375.712 287.486C376.075 287.31 376.379 287.057 376.624 286.727C376.868 286.398 377.036 285.997 377.126 285.526H380.075C380.001 286.452 379.729 287.273 379.257 287.989C378.786 288.699 378.143 289.256 377.331 289.659C376.518 290.057 375.564 290.256 374.467 290.256ZM389.146 276.909V279.295H381.62V276.909H389.146ZM383.478 273.773H386.563V286.062C386.563 286.477 386.626 286.795 386.751 287.017C386.881 287.233 387.052 287.381 387.262 287.46C387.472 287.54 387.705 287.58 387.961 287.58C388.154 287.58 388.33 287.565 388.489 287.537C388.654 287.509 388.779 287.483 388.864 287.46L389.384 289.872C389.219 289.929 388.984 289.991 388.677 290.06C388.376 290.128 388.006 290.168 387.569 290.179C386.796 290.202 386.1 290.085 385.481 289.83C384.862 289.568 384.37 289.165 384.006 288.619C383.648 288.074 383.472 287.392 383.478 286.574V273.773ZM408.026 280.369L405.213 280.676C405.134 280.392 404.994 280.125 404.795 279.875C404.602 279.625 404.341 279.423 404.011 279.27C403.682 279.116 403.278 279.04 402.801 279.04C402.159 279.04 401.619 279.179 401.182 279.457C400.75 279.736 400.537 280.097 400.543 280.54C400.537 280.92 400.676 281.23 400.96 281.469C401.25 281.707 401.727 281.903 402.392 282.057L404.625 282.534C405.864 282.801 406.784 283.224 407.386 283.804C407.994 284.384 408.301 285.142 408.307 286.08C408.301 286.903 408.06 287.631 407.582 288.261C407.111 288.886 406.455 289.375 405.614 289.727C404.773 290.08 403.807 290.256 402.716 290.256C401.114 290.256 399.824 289.92 398.847 289.25C397.869 288.574 397.287 287.634 397.099 286.429L400.108 286.139C400.244 286.73 400.534 287.176 400.977 287.477C401.42 287.778 401.997 287.929 402.707 287.929C403.44 287.929 404.028 287.778 404.472 287.477C404.92 287.176 405.145 286.804 405.145 286.361C405.145 285.986 405 285.676 404.71 285.432C404.426 285.187 403.983 285 403.381 284.869L401.148 284.401C399.892 284.139 398.963 283.699 398.361 283.08C397.759 282.455 397.46 281.665 397.466 280.71C397.46 279.903 397.679 279.205 398.122 278.614C398.571 278.017 399.193 277.557 399.989 277.233C400.79 276.903 401.713 276.739 402.759 276.739C404.293 276.739 405.5 277.065 406.381 277.719C407.267 278.372 407.815 279.256 408.026 280.369ZM410.851 290V276.909H413.936V290H410.851ZM412.402 275.051C411.913 275.051 411.493 274.889 411.141 274.565C410.788 274.236 410.612 273.841 410.612 273.381C410.612 272.915 410.788 272.52 411.141 272.196C411.493 271.866 411.913 271.702 412.402 271.702C412.896 271.702 413.317 271.866 413.663 272.196C414.016 272.52 414.192 272.915 414.192 273.381C414.192 273.841 414.016 274.236 413.663 274.565C413.317 274.889 412.896 275.051 412.402 275.051ZM423.646 276.909V279.295H416.12V276.909H423.646ZM417.978 273.773H421.063V286.062C421.063 286.477 421.126 286.795 421.251 287.017C421.381 287.233 421.552 287.381 421.762 287.46C421.972 287.54 422.205 287.58 422.461 287.58C422.654 287.58 422.83 287.565 422.989 287.537C423.154 287.509 423.279 287.483 423.364 287.46L423.884 289.872C423.719 289.929 423.484 289.991 423.177 290.06C422.876 290.128 422.506 290.168 422.069 290.179C421.296 290.202 420.6 290.085 419.981 289.83C419.362 289.568 418.87 289.165 418.506 288.619C418.148 288.074 417.972 287.392 417.978 286.574V273.773ZM431.881 290.256C430.568 290.256 429.435 289.983 428.48 289.438C427.531 288.886 426.801 288.108 426.29 287.102C425.778 286.091 425.523 284.901 425.523 283.531C425.523 282.185 425.778 281.003 426.29 279.986C426.807 278.963 427.528 278.168 428.455 277.599C429.381 277.026 430.469 276.739 431.719 276.739C432.526 276.739 433.287 276.869 434.003 277.131C434.724 277.386 435.361 277.784 435.912 278.324C436.469 278.864 436.906 279.551 437.224 280.386C437.543 281.216 437.702 282.205 437.702 283.352V284.298H426.972V282.219H434.744C434.739 281.628 434.611 281.102 434.361 280.642C434.111 280.176 433.761 279.81 433.312 279.543C432.869 279.276 432.352 279.142 431.761 279.142C431.131 279.142 430.577 279.295 430.099 279.602C429.622 279.903 429.25 280.301 428.983 280.795C428.722 281.284 428.588 281.821 428.582 282.406V284.222C428.582 284.983 428.722 285.636 429 286.182C429.278 286.722 429.668 287.136 430.168 287.426C430.668 287.71 431.253 287.852 431.923 287.852C432.372 287.852 432.778 287.79 433.142 287.665C433.506 287.534 433.821 287.344 434.088 287.094C434.355 286.844 434.557 286.534 434.693 286.165L437.574 286.489C437.392 287.25 437.045 287.915 436.534 288.483C436.028 289.045 435.381 289.483 434.591 289.795C433.801 290.102 432.898 290.256 431.881 290.256ZM442.212 290.188C441.695 290.188 441.252 290.006 440.883 289.642C440.513 289.278 440.332 288.835 440.337 288.312C440.332 287.801 440.513 287.364 440.883 287C441.252 286.636 441.695 286.455 442.212 286.455C442.712 286.455 443.147 286.636 443.516 287C443.891 287.364 444.082 287.801 444.087 288.312C444.082 288.659 443.991 288.974 443.815 289.259C443.644 289.543 443.417 289.77 443.133 289.94C442.854 290.105 442.548 290.188 442.212 290.188Z" fill="black"/>
</g>
<defs>
<linearGradient id="paint0_linear_1_71" x1="75.5039" y1="150.872" x2="38.2369" y2="86.324" gradientUnits="userSpaceOnUse">
<stop stop-color="#353535"/>
<stop offset="1" stop-color="white"/>
</linearGradient>
<linearGradient id="paint1_linear_1_71" x1="101.84" y1="148.037" x2="29.8332" y2="77.3358" gradientUnits="userSpaceOnUse">
<stop stop-color="#181818"/>
<stop offset="1" stop-color="#181818" stop-opacity="0"/>
</linearGradient>
<linearGradient id="paint2_linear_1_71" x1="121.938" y1="132.097" x2="164.986" y2="77.9426" gradientUnits="userSpaceOnUse">
<stop stop-color="#5F5C5B"/>
<stop offset="1" stop-color="white"/>
</linearGradient>
<linearGradient id="paint3_linear_1_71" x1="116.394" y1="134.176" x2="186.016" y2="80.8101" gradientUnits="userSpaceOnUse">
<stop stop-color="#181818"/>
<stop offset="1" stop-color="#181818" stop-opacity="0"/>
</linearGradient>
<linearGradient id="paint4_linear_1_71" x1="54.1504" y1="96.4513" x2="27.409" y2="203.795" gradientUnits="userSpaceOnUse">
<stop stop-color="white"/>
<stop offset="1" stop-color="#5F5F5F"/>
</linearGradient>
<linearGradient id="paint5_linear_1_71" x1="55.2181" y1="100.722" x2="28.9104" y2="181.424" gradientUnits="userSpaceOnUse">
<stop stop-color="#282828"/>
<stop offset="1" stop-color="#181818"/>
</linearGradient>
<linearGradient id="paint6_linear_1_71" x1="127.82" y1="131.684" x2="192.451" y2="145.618" gradientUnits="userSpaceOnUse">
<stop stop-color="white"/>
<stop offset="1" stop-color="#4E4E4E"/>
</linearGradient>
<linearGradient id="paint7_linear_1_71" x1="123.549" y1="134.887" x2="210.511" y2="141.267" gradientUnits="userSpaceOnUse">
<stop stop-color="#1C1C1C"/>
<stop offset="1" stop-color="#181818"/>
</linearGradient>
<linearGradient id="paint8_linear_1_71" x1="240" y1="195" x2="383" y2="195" gradientUnits="userSpaceOnUse">
<stop/>
<stop offset="1" stop-opacity="0"/>
</linearGradient>
<clipPath id="clip0_1_71">
<rect width="460" height="368" fill="white"/>
</clipPath>
</defs>
</svg>
