<svg width="460" height="368" viewBox="0 0 460 368" fill="none" xmlns="http://www.w3.org/2000/svg">
<g clip-path="url(#clip0_1_86)">
<path d="M450 0H10C4.47715 0 0 4.47715 0 10V358C0 363.523 4.47715 368 10 368H450C455.523 368 460 363.523 460 358V10C460 4.47715 455.523 0 450 0Z" fill="#1933D5"/>
<path d="M151.461 71.6091L231 25.6875L310.539 71.6091V163.452L231 209.374L151.461 163.452V71.6091Z" stroke="url(#paint0_linear_1_86)" stroke-width="2.92284"/>
<path d="M161.586 77.4549L231 37.3789L300.414 77.4549V157.607L231 197.683L161.586 157.607V77.4549Z" stroke="url(#paint1_linear_1_86)" stroke-width="2.92284"/>
<path d="M171.711 83.3006L231 49.0703L290.289 83.3006V151.761L231 185.991L171.711 151.761V83.3006Z" stroke="url(#paint2_linear_1_86)" stroke-width="2.92284"/>
<path d="M181.837 89.1463L231 60.7617L280.164 89.1463V145.916L231 174.3L181.837 145.916V89.1463Z" stroke="url(#paint3_linear_1_86)" stroke-width="2.92284"/>
<path d="M191.962 94.9921L231 72.4531L270.039 94.9921V140.07L231 162.609L191.962 140.07V94.9921Z" stroke="url(#paint4_linear_1_86)" stroke-width="2.92284"/>
<path d="M231 82.4568L261.375 99.9938V135.068L231 152.605L200.625 135.068V99.9938L231 82.4568Z" fill="url(#paint5_radial_1_86)"/>
<path d="M242.277 99.281C241.192 98.6879 238.12 99.0529 234.46 100.194C227.999 104.665 222.532 111.235 222.171 121.774C222.08 122.047 221.448 121.728 221.357 121.682C219.595 118.306 218.918 114.748 220.363 109.638C220.634 109.181 219.731 108.634 219.595 108.771C219.279 109.09 217.924 110.55 217.065 112.101C212.682 119.812 215.529 129.621 223.21 133.955C230.891 138.29 240.56 135.506 244.852 127.75C249.732 118.762 245.168 100.924 242.277 99.281Z" fill="white"/>
<path d="M304 269H157C147.059 269 139 277.059 139 287C139 296.941 147.059 305 157 305H304C313.941 305 322 296.941 322 287C322 277.059 313.941 269 304 269Z" stroke="white"/>
<path d="M247.367 291.5V289.634H242.445V288.116C243.257 286.585 244.621 284.425 246.54 281.636H249.049V288.191H250.375V289.634H249.049V291.5H247.367ZM244.045 288.185V288.232H247.395V282.941H247.367C246.533 284.149 245.866 285.147 245.364 285.936C244.863 286.724 244.423 287.474 244.045 288.185ZM252.686 291.575C252.408 291.575 252.173 291.482 251.981 291.295C251.795 291.104 251.701 290.869 251.701 290.591C251.701 290.317 251.795 290.085 251.981 289.894C252.173 289.702 252.408 289.606 252.686 289.606C252.959 289.606 253.189 289.702 253.376 289.894C253.567 290.085 253.663 290.317 253.663 290.591C253.663 290.869 253.567 291.104 253.376 291.295C253.189 291.482 252.959 291.575 252.686 291.575ZM258.886 291.698C257.683 291.698 256.737 291.24 256.049 290.324C255.365 289.404 255.023 288.148 255.023 286.558C255.023 284.976 255.368 283.728 256.056 282.812C256.744 281.896 257.687 281.438 258.886 281.438C260.084 281.438 261.025 281.896 261.709 282.812C262.393 283.723 262.734 284.969 262.734 286.551C262.734 288.137 262.393 289.392 261.709 290.317C261.025 291.238 260.084 291.698 258.886 291.698ZM258.886 290.256C259.537 290.256 260.043 289.93 260.403 289.278C260.768 288.627 260.95 287.72 260.95 286.558C260.95 285.405 260.768 284.505 260.403 283.857C260.039 283.206 259.533 282.88 258.886 282.88C258.239 282.88 257.728 283.206 257.354 283.857C256.985 284.509 256.801 285.407 256.801 286.551C256.801 287.713 256.983 288.622 257.348 289.278C257.717 289.93 258.229 290.256 258.886 290.256ZM268.757 283.064V286.435H270.746C271.307 286.435 271.742 286.286 272.052 285.99C272.362 285.694 272.517 285.279 272.517 284.746C272.517 284.227 272.355 283.816 272.031 283.516C271.708 283.215 271.268 283.064 270.712 283.064H268.757ZM268.757 287.788V291.5H266.993V281.636H270.91C271.972 281.636 272.806 281.911 273.412 282.463C274.018 283.01 274.321 283.757 274.321 284.705C274.321 285.366 274.157 285.949 273.829 286.455C273.501 286.956 273.045 287.312 272.462 287.521L274.615 291.5H272.605L270.664 287.788H268.757ZM278.19 290.331C278.678 290.331 279.088 290.188 279.421 289.9C279.758 289.609 279.927 289.246 279.927 288.813V288.26L278.252 288.362C277.842 288.39 277.523 288.492 277.295 288.67C277.072 288.843 276.96 289.073 276.96 289.36C276.96 289.657 277.072 289.894 277.295 290.071C277.523 290.244 277.821 290.331 278.19 290.331ZM277.678 291.616C276.971 291.616 276.39 291.413 275.935 291.008C275.483 290.602 275.258 290.076 275.258 289.429C275.258 288.786 275.495 288.278 275.969 287.904C276.447 287.531 277.129 287.316 278.013 287.262L279.927 287.152V286.633C279.927 286.255 279.806 285.961 279.564 285.751C279.327 285.541 278.997 285.437 278.573 285.437C278.177 285.437 277.853 285.525 277.603 285.703C277.352 285.881 277.199 286.122 277.145 286.428H275.565C275.602 285.74 275.896 285.181 276.447 284.753C277.003 284.32 277.735 284.104 278.642 284.104C279.539 284.104 280.257 284.322 280.795 284.76C281.337 285.197 281.608 285.781 281.608 286.51V291.5H279.968V290.345H279.934C279.729 290.732 279.419 291.042 279.004 291.274C278.589 291.502 278.147 291.616 277.678 291.616ZM283.454 282.559H285.156V284.254H286.523V285.566H285.156V289.333C285.156 289.629 285.227 289.848 285.368 289.989C285.509 290.131 285.73 290.201 286.031 290.201C286.232 290.201 286.394 290.19 286.517 290.167V291.466C286.312 291.511 286.018 291.534 285.635 291.534C284.851 291.534 284.29 291.384 283.953 291.083C283.62 290.782 283.454 290.279 283.454 289.572V285.566H282.415V284.254H283.454V282.559ZM287.727 291.5V284.254H289.429V291.5H287.727ZM289.244 283.037C289.062 283.215 288.839 283.304 288.574 283.304C288.31 283.304 288.087 283.215 287.904 283.037C287.722 282.855 287.631 282.636 287.631 282.381C287.631 282.121 287.722 281.902 287.904 281.725C288.087 281.542 288.31 281.451 288.574 281.451C288.839 281.451 289.062 281.542 289.244 281.725C289.431 281.902 289.524 282.121 289.524 282.381C289.524 282.636 289.431 282.855 289.244 283.037ZM290.857 291.5V284.254H292.491V285.498H292.525C292.726 285.061 293.018 284.721 293.4 284.479C293.788 284.238 294.255 284.117 294.802 284.117C295.595 284.117 296.21 284.356 296.647 284.835C297.09 285.313 297.311 285.974 297.311 286.817V291.5H295.608V287.159C295.608 286.64 295.485 286.243 295.239 285.97C294.998 285.696 294.638 285.56 294.159 285.56C293.672 285.56 293.282 285.719 292.99 286.038C292.703 286.357 292.56 286.779 292.56 287.303V291.5H290.857ZM301.877 290.153C302.424 290.153 302.859 289.948 303.183 289.538C303.506 289.123 303.668 288.563 303.668 287.856C303.668 287.15 303.504 286.587 303.176 286.168C302.852 285.744 302.419 285.532 301.877 285.532C301.339 285.532 300.911 285.742 300.592 286.161C300.277 286.58 300.12 287.146 300.12 287.856C300.12 288.572 300.277 289.135 300.592 289.545C300.911 289.951 301.339 290.153 301.877 290.153ZM301.87 294.234C300.981 294.234 300.239 294.029 299.642 293.619C299.049 293.214 298.71 292.689 298.623 292.047H300.312C300.403 292.325 300.594 292.548 300.886 292.717C301.177 292.89 301.524 292.977 301.925 292.977C302.472 292.977 302.898 292.835 303.203 292.553C303.513 292.275 303.668 291.901 303.668 291.432V290.208H303.627C303.436 290.604 303.137 290.921 302.731 291.158C302.33 291.391 301.872 291.507 301.357 291.507C300.455 291.507 299.733 291.179 299.19 290.522C298.648 289.862 298.377 288.971 298.377 287.85C298.377 286.706 298.648 285.801 299.19 285.136C299.733 284.466 300.466 284.131 301.392 284.131C301.902 284.131 302.358 284.254 302.759 284.5C303.16 284.742 303.465 285.074 303.675 285.498H303.702V284.254H305.37V291.384C305.37 292.25 305.051 292.94 304.413 293.455C303.775 293.975 302.927 294.234 301.87 294.234Z" fill="white"/>
<path d="M194.763 290.855L191.828 292.399C191.195 292.731 190.456 292.195 190.576 291.49L191.137 288.221L188.762 285.904C188.249 285.406 188.532 284.537 189.239 284.433L192.522 283.957L193.99 280.981C194.306 280.34 195.22 280.34 195.537 280.981L197.004 283.957L200.287 284.433C200.994 284.536 201.277 285.405 200.765 285.904L198.39 288.221L198.95 291.49C199.07 292.195 198.331 292.732 197.699 292.399L194.763 290.855Z" fill="white"/>
<path d="M160.763 290.855L157.828 292.399C157.195 292.731 156.456 292.195 156.576 291.49L157.137 288.221L154.762 285.904C154.249 285.406 154.532 284.537 155.239 284.433L158.522 283.957L159.99 280.981C160.306 280.34 161.22 280.34 161.537 280.981L163.004 283.957L166.287 284.433C166.994 284.536 167.277 285.405 166.765 285.904L164.39 288.221L164.95 291.49C165.07 292.195 164.331 292.732 163.699 292.399L160.763 290.855Z" fill="white"/>
<path d="M211.763 290.855L208.828 292.399C208.195 292.731 207.456 292.195 207.576 291.49L208.137 288.221L205.762 285.904C205.249 285.406 205.532 284.537 206.239 284.433L209.522 283.957L210.99 280.981C211.306 280.34 212.22 280.34 212.537 280.981L214.004 283.957L217.287 284.433C217.994 284.536 218.277 285.405 217.765 285.904L215.39 288.221L215.95 291.49C216.07 292.195 215.331 292.732 214.699 292.399L211.763 290.855Z" fill="white"/>
<path d="M177.763 290.855L174.828 292.399C174.195 292.731 173.456 292.195 173.576 291.49L174.137 288.221L171.762 285.904C171.249 285.406 171.532 284.537 172.239 284.433L175.522 283.957L176.99 280.981C177.306 280.34 178.22 280.34 178.537 280.981L180.004 283.957L183.287 284.433C183.994 284.536 184.277 285.405 183.765 285.904L181.39 288.221L181.95 291.49C182.07 292.195 181.331 292.732 180.699 292.399L177.763 290.855Z" fill="white"/>
<path d="M96.8686 232.196V229.545H110.795V232.196H105.4V247H102.263V232.196H96.8686ZM117.155 247.256C115.876 247.256 114.768 246.974 113.831 246.412C112.893 245.849 112.166 245.062 111.649 244.051C111.138 243.04 110.882 241.858 110.882 240.506C110.882 239.153 111.138 237.969 111.649 236.952C112.166 235.935 112.893 235.145 113.831 234.582C114.768 234.02 115.876 233.739 117.155 233.739C118.433 233.739 119.541 234.02 120.479 234.582C121.416 235.145 122.141 235.935 122.652 236.952C123.169 237.969 123.428 239.153 123.428 240.506C123.428 241.858 123.169 243.04 122.652 244.051C122.141 245.062 121.416 245.849 120.479 246.412C119.541 246.974 118.433 247.256 117.155 247.256ZM117.172 244.784C117.865 244.784 118.445 244.594 118.911 244.213C119.376 243.827 119.723 243.31 119.95 242.662C120.183 242.014 120.3 241.293 120.3 240.497C120.3 239.696 120.183 238.972 119.95 238.324C119.723 237.67 119.376 237.151 118.911 236.764C118.445 236.378 117.865 236.185 117.172 236.185C116.462 236.185 115.871 236.378 115.399 236.764C114.933 237.151 114.584 237.67 114.351 238.324C114.124 238.972 114.01 239.696 114.01 240.497C114.01 241.293 114.124 242.014 114.351 242.662C114.584 243.31 114.933 243.827 115.399 244.213C115.871 244.594 116.462 244.784 117.172 244.784ZM126.046 251.909V233.909H129.08V236.074H129.259C129.418 235.756 129.643 235.418 129.933 235.06C130.222 234.696 130.614 234.386 131.109 234.131C131.603 233.869 132.234 233.739 133.001 233.739C134.012 233.739 134.924 233.997 135.737 234.514C136.555 235.026 137.202 235.784 137.68 236.79C138.163 237.79 138.404 239.017 138.404 240.472C138.404 241.909 138.168 243.131 137.697 244.136C137.225 245.142 136.583 245.909 135.771 246.438C134.958 246.966 134.038 247.23 133.009 247.23C132.259 247.23 131.637 247.105 131.143 246.855C130.648 246.605 130.251 246.304 129.95 245.952C129.654 245.594 129.424 245.256 129.259 244.938H129.131V251.909H126.046ZM129.072 240.455C129.072 241.301 129.191 242.043 129.43 242.679C129.674 243.315 130.023 243.812 130.478 244.17C130.938 244.523 131.495 244.699 132.148 244.699C132.83 244.699 133.401 244.517 133.862 244.153C134.322 243.784 134.668 243.281 134.901 242.645C135.14 242.003 135.259 241.273 135.259 240.455C135.259 239.642 135.143 238.92 134.91 238.29C134.677 237.659 134.33 237.165 133.87 236.807C133.41 236.449 132.836 236.27 132.148 236.27C131.489 236.27 130.93 236.443 130.469 236.79C130.009 237.136 129.66 237.622 129.421 238.247C129.188 238.872 129.072 239.608 129.072 240.455ZM148.981 238.46V241H141.123V238.46H148.981ZM152.226 247V233.909H155.217V236.091H155.354C155.592 235.335 156.001 234.753 156.581 234.344C157.166 233.929 157.834 233.722 158.584 233.722C158.754 233.722 158.945 233.73 159.155 233.747C159.371 233.759 159.55 233.778 159.692 233.807V236.645C159.561 236.599 159.354 236.56 159.07 236.526C158.791 236.486 158.521 236.466 158.26 236.466C157.697 236.466 157.192 236.588 156.743 236.832C156.3 237.071 155.95 237.403 155.695 237.83C155.439 238.256 155.311 238.747 155.311 239.304V247H152.226ZM165.274 247.264C164.445 247.264 163.697 247.116 163.033 246.821C162.374 246.52 161.851 246.077 161.464 245.491C161.084 244.906 160.893 244.185 160.893 243.327C160.893 242.588 161.03 241.977 161.303 241.494C161.575 241.011 161.947 240.625 162.419 240.335C162.891 240.045 163.422 239.827 164.013 239.679C164.609 239.526 165.226 239.415 165.862 239.347C166.629 239.267 167.251 239.196 167.729 239.134C168.206 239.065 168.553 238.963 168.768 238.827C168.99 238.685 169.101 238.466 169.101 238.17V238.119C169.101 237.477 168.911 236.98 168.53 236.628C168.149 236.276 167.601 236.099 166.885 236.099C166.129 236.099 165.53 236.264 165.087 236.594C164.649 236.923 164.354 237.312 164.2 237.761L161.32 237.352C161.547 236.557 161.922 235.892 162.445 235.358C162.967 234.818 163.607 234.415 164.362 234.148C165.118 233.875 165.953 233.739 166.868 233.739C167.499 233.739 168.126 233.812 168.751 233.96C169.376 234.108 169.947 234.352 170.464 234.693C170.982 235.028 171.396 235.486 171.709 236.065C172.027 236.645 172.186 237.369 172.186 238.239V247H169.22V245.202H169.118C168.93 245.565 168.666 245.906 168.325 246.224C167.99 246.537 167.567 246.79 167.055 246.983C166.55 247.17 165.956 247.264 165.274 247.264ZM166.075 244.997C166.695 244.997 167.232 244.875 167.686 244.631C168.141 244.381 168.49 244.051 168.734 243.642C168.984 243.233 169.109 242.787 169.109 242.304V240.761C169.013 240.841 168.848 240.915 168.615 240.983C168.388 241.051 168.132 241.111 167.848 241.162C167.564 241.213 167.283 241.259 167.004 241.298C166.726 241.338 166.484 241.372 166.28 241.401C165.82 241.463 165.408 241.565 165.044 241.707C164.68 241.849 164.393 242.048 164.183 242.304C163.973 242.554 163.868 242.878 163.868 243.276C163.868 243.844 164.075 244.273 164.49 244.562C164.905 244.852 165.433 244.997 166.075 244.997ZM181.825 233.909V236.295H174.3V233.909H181.825ZM176.158 230.773H179.243V243.062C179.243 243.477 179.305 243.795 179.43 244.017C179.561 244.233 179.732 244.381 179.942 244.46C180.152 244.54 180.385 244.58 180.641 244.58C180.834 244.58 181.01 244.565 181.169 244.537C181.334 244.509 181.459 244.483 181.544 244.46L182.064 246.872C181.899 246.929 181.663 246.991 181.357 247.06C181.055 247.128 180.686 247.168 180.249 247.179C179.476 247.202 178.78 247.085 178.161 246.83C177.541 246.568 177.05 246.165 176.686 245.619C176.328 245.074 176.152 244.392 176.158 243.574V230.773ZM190.06 247.256C188.748 247.256 187.614 246.983 186.66 246.438C185.711 245.886 184.981 245.108 184.469 244.102C183.958 243.091 183.702 241.901 183.702 240.531C183.702 239.185 183.958 238.003 184.469 236.986C184.987 235.963 185.708 235.168 186.634 234.599C187.56 234.026 188.648 233.739 189.898 233.739C190.705 233.739 191.467 233.869 192.183 234.131C192.904 234.386 193.54 234.784 194.092 235.324C194.648 235.864 195.086 236.551 195.404 237.386C195.722 238.216 195.881 239.205 195.881 240.352V241.298H185.151V239.219H192.924C192.918 238.628 192.79 238.102 192.54 237.642C192.29 237.176 191.941 236.81 191.492 236.543C191.049 236.276 190.532 236.142 189.941 236.142C189.31 236.142 188.756 236.295 188.279 236.602C187.802 236.903 187.43 237.301 187.163 237.795C186.901 238.284 186.768 238.821 186.762 239.406V241.222C186.762 241.983 186.901 242.636 187.18 243.182C187.458 243.722 187.847 244.136 188.347 244.426C188.847 244.71 189.433 244.852 190.103 244.852C190.552 244.852 190.958 244.79 191.322 244.665C191.685 244.534 192.001 244.344 192.268 244.094C192.535 243.844 192.737 243.534 192.873 243.165L195.754 243.489C195.572 244.25 195.225 244.915 194.714 245.483C194.208 246.045 193.56 246.483 192.771 246.795C191.981 247.102 191.077 247.256 190.06 247.256ZM203.349 247.23C202.321 247.23 201.401 246.966 200.588 246.438C199.776 245.909 199.134 245.142 198.662 244.136C198.19 243.131 197.955 241.909 197.955 240.472C197.955 239.017 198.193 237.79 198.67 236.79C199.153 235.784 199.804 235.026 200.622 234.514C201.44 233.997 202.352 233.739 203.358 233.739C204.125 233.739 204.756 233.869 205.25 234.131C205.744 234.386 206.136 234.696 206.426 235.06C206.716 235.418 206.94 235.756 207.099 236.074H207.227V229.545H210.321V247H207.287V244.938H207.099C206.94 245.256 206.71 245.594 206.409 245.952C206.108 246.304 205.71 246.605 205.216 246.855C204.722 247.105 204.099 247.23 203.349 247.23ZM204.21 244.699C204.864 244.699 205.42 244.523 205.881 244.17C206.341 243.812 206.69 243.315 206.929 242.679C207.168 242.043 207.287 241.301 207.287 240.455C207.287 239.608 207.168 238.872 206.929 238.247C206.696 237.622 206.349 237.136 205.889 236.79C205.435 236.443 204.875 236.27 204.21 236.27C203.523 236.27 202.949 236.449 202.489 236.807C202.028 237.165 201.682 237.659 201.449 238.29C201.216 238.92 201.099 239.642 201.099 240.455C201.099 241.273 201.216 242.003 201.449 242.645C201.688 243.281 202.037 243.784 202.497 244.153C202.963 244.517 203.534 244.699 204.21 244.699ZM219.698 247V229.545H231.05V232.196H222.86V236.935H230.462V239.585H222.86V244.349H231.119V247H219.698ZM236.663 233.909L239.305 238.741L241.989 233.909H245.254L241.308 240.455L245.322 247H242.075L239.305 242.287L236.56 247H233.288L237.276 240.455L233.39 233.909H236.663ZM252.858 247.256C251.551 247.256 250.429 246.969 249.491 246.395C248.56 245.821 247.841 245.028 247.335 244.017C246.835 243 246.585 241.83 246.585 240.506C246.585 239.176 246.841 238.003 247.352 236.986C247.864 235.963 248.585 235.168 249.517 234.599C250.455 234.026 251.563 233.739 252.841 233.739C253.903 233.739 254.844 233.935 255.662 234.327C256.486 234.713 257.142 235.261 257.631 235.972C258.119 236.676 258.398 237.5 258.466 238.443H255.517C255.398 237.812 255.114 237.287 254.665 236.866C254.222 236.44 253.628 236.227 252.884 236.227C252.253 236.227 251.699 236.398 251.222 236.739C250.744 237.074 250.372 237.557 250.105 238.188C249.844 238.818 249.713 239.574 249.713 240.455C249.713 241.347 249.844 242.114 250.105 242.756C250.366 243.392 250.733 243.884 251.205 244.23C251.682 244.571 252.241 244.741 252.884 244.741C253.338 244.741 253.744 244.656 254.102 244.486C254.466 244.31 254.77 244.057 255.014 243.727C255.259 243.398 255.426 242.997 255.517 242.526H258.466C258.392 243.452 258.119 244.273 257.648 244.989C257.176 245.699 256.534 246.256 255.722 246.659C254.909 247.057 253.955 247.256 252.858 247.256ZM266.795 247.256C265.482 247.256 264.349 246.983 263.394 246.438C262.445 245.886 261.715 245.108 261.204 244.102C260.692 243.091 260.437 241.901 260.437 240.531C260.437 239.185 260.692 238.003 261.204 236.986C261.721 235.963 262.442 235.168 263.369 234.599C264.295 234.026 265.383 233.739 266.633 233.739C267.44 233.739 268.201 233.869 268.917 234.131C269.638 234.386 270.275 234.784 270.826 235.324C271.383 235.864 271.82 236.551 272.138 237.386C272.457 238.216 272.616 239.205 272.616 240.352V241.298H261.886V239.219H269.658C269.653 238.628 269.525 238.102 269.275 237.642C269.025 237.176 268.675 236.81 268.227 236.543C267.783 236.276 267.266 236.142 266.675 236.142C266.045 236.142 265.491 236.295 265.013 236.602C264.536 236.903 264.164 237.301 263.897 237.795C263.636 238.284 263.502 238.821 263.496 239.406V241.222C263.496 241.983 263.636 242.636 263.914 243.182C264.192 243.722 264.582 244.136 265.082 244.426C265.582 244.71 266.167 244.852 266.837 244.852C267.286 244.852 267.692 244.79 268.056 244.665C268.42 244.534 268.735 244.344 269.002 244.094C269.269 243.844 269.471 243.534 269.607 243.165L272.488 243.489C272.306 244.25 271.96 244.915 271.448 245.483C270.942 246.045 270.295 246.483 269.505 246.795C268.715 247.102 267.812 247.256 266.795 247.256ZM278.311 229.545V247H275.226V229.545H278.311ZM284.569 229.545V247H281.484V229.545H284.569ZM293.537 247.256C292.224 247.256 291.091 246.983 290.136 246.438C289.188 245.886 288.457 245.108 287.946 244.102C287.435 243.091 287.179 241.901 287.179 240.531C287.179 239.185 287.435 238.003 287.946 236.986C288.463 235.963 289.185 235.168 290.111 234.599C291.037 234.026 292.125 233.739 293.375 233.739C294.182 233.739 294.943 233.869 295.659 234.131C296.381 234.386 297.017 234.784 297.568 235.324C298.125 235.864 298.563 236.551 298.881 237.386C299.199 238.216 299.358 239.205 299.358 240.352V241.298H288.628V239.219H296.401C296.395 238.628 296.267 238.102 296.017 237.642C295.767 237.176 295.418 236.81 294.969 236.543C294.526 236.276 294.009 236.142 293.418 236.142C292.787 236.142 292.233 236.295 291.756 236.602C291.278 236.903 290.906 237.301 290.639 237.795C290.378 238.284 290.244 238.821 290.239 239.406V241.222C290.239 241.983 290.378 242.636 290.656 243.182C290.935 243.722 291.324 244.136 291.824 244.426C292.324 244.71 292.909 244.852 293.58 244.852C294.028 244.852 294.435 244.79 294.798 244.665C295.162 244.534 295.477 244.344 295.744 244.094C296.011 243.844 296.213 243.534 296.349 243.165L299.23 243.489C299.048 244.25 298.702 244.915 298.19 245.483C297.685 246.045 297.037 246.483 296.247 246.795C295.457 247.102 294.554 247.256 293.537 247.256ZM305.053 239.33V247H301.968V233.909H304.917V236.134H305.07C305.371 235.401 305.852 234.818 306.511 234.386C307.175 233.955 307.996 233.739 308.974 233.739C309.877 233.739 310.664 233.932 311.335 234.318C312.011 234.705 312.533 235.264 312.903 235.997C313.278 236.73 313.462 237.619 313.457 238.665V247H310.371V239.142C310.371 238.267 310.144 237.582 309.69 237.088C309.241 236.594 308.619 236.347 307.823 236.347C307.283 236.347 306.803 236.466 306.383 236.705C305.968 236.937 305.641 237.276 305.403 237.719C305.17 238.162 305.053 238.699 305.053 239.33ZM322.303 247.256C320.996 247.256 319.874 246.969 318.937 246.395C318.005 245.821 317.286 245.028 316.781 244.017C316.281 243 316.031 241.83 316.031 240.506C316.031 239.176 316.286 238.003 316.798 236.986C317.309 235.963 318.031 235.168 318.962 234.599C319.9 234.026 321.008 233.739 322.286 233.739C323.349 233.739 324.289 233.935 325.107 234.327C325.931 234.713 326.587 235.261 327.076 235.972C327.565 236.676 327.843 237.5 327.911 238.443H324.962C324.843 237.812 324.559 237.287 324.11 236.866C323.667 236.44 323.073 236.227 322.329 236.227C321.698 236.227 321.144 236.398 320.667 236.739C320.19 237.074 319.817 237.557 319.55 238.188C319.289 238.818 319.158 239.574 319.158 240.455C319.158 241.347 319.289 242.114 319.55 242.756C319.812 243.392 320.178 243.884 320.65 244.23C321.127 244.571 321.687 244.741 322.329 244.741C322.783 244.741 323.19 244.656 323.548 244.486C323.911 244.31 324.215 244.057 324.46 243.727C324.704 243.398 324.871 242.997 324.962 242.526H327.911C327.837 243.452 327.565 244.273 327.093 244.989C326.621 245.699 325.979 246.256 325.167 246.659C324.354 247.057 323.4 247.256 322.303 247.256ZM336.24 247.256C334.928 247.256 333.794 246.983 332.839 246.438C331.891 245.886 331.161 245.108 330.649 244.102C330.138 243.091 329.882 241.901 329.882 240.531C329.882 239.185 330.138 238.003 330.649 236.986C331.166 235.963 331.888 235.168 332.814 234.599C333.74 234.026 334.828 233.739 336.078 233.739C336.885 233.739 337.646 233.869 338.362 234.131C339.084 234.386 339.72 234.784 340.271 235.324C340.828 235.864 341.266 236.551 341.584 237.386C341.902 238.216 342.061 239.205 342.061 240.352V241.298H331.331V239.219H339.104C339.098 238.628 338.97 238.102 338.72 237.642C338.47 237.176 338.121 236.81 337.672 236.543C337.229 236.276 336.712 236.142 336.121 236.142C335.49 236.142 334.936 236.295 334.459 236.602C333.982 236.903 333.609 237.301 333.342 237.795C333.081 238.284 332.947 238.821 332.942 239.406V241.222C332.942 241.983 333.081 242.636 333.359 243.182C333.638 243.722 334.027 244.136 334.527 244.426C335.027 244.71 335.612 244.852 336.283 244.852C336.732 244.852 337.138 244.79 337.501 244.665C337.865 244.534 338.18 244.344 338.447 244.094C338.714 243.844 338.916 243.534 339.053 243.165L341.933 243.489C341.751 244.25 341.405 244.915 340.893 245.483C340.388 246.045 339.74 246.483 338.95 246.795C338.161 247.102 337.257 247.256 336.24 247.256Z" fill="white"/>
</g>
<defs>
<linearGradient id="paint0_linear_1_86" x1="200.31" y1="24" x2="270.458" y2="211.061" gradientUnits="userSpaceOnUse">
<stop stop-color="white"/>
<stop offset="1" stop-color="white" stop-opacity="0"/>
</linearGradient>
<linearGradient id="paint1_linear_1_86" x1="204.146" y1="35.6914" x2="265.526" y2="199.37" gradientUnits="userSpaceOnUse">
<stop stop-color="white"/>
<stop offset="1" stop-color="white" stop-opacity="0"/>
</linearGradient>
<linearGradient id="paint2_linear_1_86" x1="207.983" y1="47.3828" x2="260.594" y2="187.679" gradientUnits="userSpaceOnUse">
<stop stop-color="white"/>
<stop offset="1" stop-color="white" stop-opacity="0"/>
</linearGradient>
<linearGradient id="paint3_linear_1_86" x1="211.819" y1="59.0742" x2="255.662" y2="175.988" gradientUnits="userSpaceOnUse">
<stop stop-color="white"/>
<stop offset="1" stop-color="white" stop-opacity="0"/>
</linearGradient>
<linearGradient id="paint4_linear_1_86" x1="215.655" y1="70.7656" x2="250.729" y2="164.296" gradientUnits="userSpaceOnUse">
<stop stop-color="white"/>
<stop offset="1" stop-color="white" stop-opacity="0"/>
</linearGradient>
<radialGradient id="paint5_radial_1_86" cx="0" cy="0" r="1" gradientUnits="userSpaceOnUse" gradientTransform="translate(231 117.531) rotate(90) scale(35.074 35.074)">
<stop stop-color="white" stop-opacity="0.9"/>
<stop offset="1" stop-color="white" stop-opacity="0"/>
</radialGradient>
<clipPath id="clip0_1_86">
<rect width="460" height="368" fill="white"/>
</clipPath>
</defs>
</svg>
