<svg width="460" height="368" viewBox="0 0 460 368" fill="none" xmlns="http://www.w3.org/2000/svg">
<rect width="460" height="368" rx="10" fill="#1933D5"/>
<path d="M198.254 249H194.576V235.684H194.467L189.107 248.809H186.51L181.15 235.684H181.041V249H177.363V229.271H182.148L187.754 243.258H187.863L193.469 229.271H198.254V249ZM206.525 246.348C208.262 246.348 209.697 245.213 209.697 243.627V242.561L206.607 242.752C205.117 242.861 204.27 243.531 204.27 244.57C204.27 245.664 205.172 246.348 206.525 246.348ZM205.213 249.232C202.424 249.232 200.305 247.428 200.305 244.789C200.305 242.123 202.355 240.578 206.006 240.359L209.697 240.141V239.17C209.697 237.803 208.74 237.01 207.236 237.01C205.746 237.01 204.803 237.748 204.611 238.828H200.961C201.111 235.984 203.531 234.029 207.414 234.029C211.174 234.029 213.621 235.971 213.621 238.924V249H209.766V246.758H209.684C208.863 248.316 207.045 249.232 205.213 249.232ZM221.646 249.232C217.982 249.232 215.672 246.334 215.672 241.645C215.672 236.996 217.996 234.111 221.674 234.111C223.793 234.111 225.434 235.232 226.145 236.859H226.227V229.271H230.219V249H226.281V246.484H226.213C225.502 248.098 223.807 249.232 221.646 249.232ZM223 237.311C220.99 237.311 219.76 238.992 219.76 241.672C219.76 244.365 220.99 246.02 223 246.02C224.982 246.02 226.254 244.352 226.254 241.672C226.254 239.006 224.982 237.311 223 237.311ZM239.461 236.982C237.711 236.982 236.453 238.309 236.316 240.141H242.537C242.455 238.268 241.238 236.982 239.461 236.982ZM242.592 244.516H246.256C245.818 247.387 243.193 249.314 239.57 249.314C235.059 249.314 232.352 246.43 232.352 241.74C232.352 237.064 235.086 234.029 239.42 234.029C243.686 234.029 246.379 236.914 246.379 241.371V242.588H236.275V242.834C236.275 244.926 237.602 246.361 239.639 246.361C241.102 246.361 242.223 245.637 242.592 244.516ZM262.703 249.232C260.557 249.232 258.916 248.193 258.109 246.484H258.027V249H254.09V229.271H258.082V236.887H258.164C258.971 235.15 260.598 234.111 262.689 234.111C266.381 234.111 268.65 236.941 268.65 241.672C268.65 246.389 266.395 249.232 262.703 249.232ZM261.322 237.311C259.395 237.311 258.068 239.047 258.068 241.672C258.068 244.324 259.381 246.02 261.322 246.02C263.318 246.02 264.562 244.352 264.562 241.672C264.562 239.006 263.305 237.311 261.322 237.311ZM272.246 254.428C272.109 254.428 270.865 254.414 270.742 254.387V251.311C270.865 251.338 271.59 251.338 271.74 251.338C273.203 251.338 273.928 250.873 274.201 249.711C274.201 249.656 274.352 249.068 274.324 249.014L269.225 234.344H273.613L276.73 245.801H276.799L279.916 234.344H284.127L279.082 249.328C277.824 253.088 275.992 254.428 272.246 254.428ZM124.125 277.582V281H111.055V261.271H124.125V264.676H115.184V269.434H123.619V272.605H115.184V277.582H124.125ZM126.764 281V266.344H130.619V268.955H130.701C131.48 267.137 133.025 266.07 135.281 266.07C138.535 266.07 140.367 268.121 140.367 271.553V281H136.375V272.387C136.375 270.473 135.473 269.379 133.682 269.379C131.891 269.379 130.756 270.691 130.756 272.592V281H126.764ZM156.213 266.344L151.182 281H146.67L141.598 266.344H145.877L148.926 277.473H149.008L152.043 266.344H156.213ZM162.912 278.348C164.648 278.348 166.084 277.213 166.084 275.627V274.561L162.994 274.752C161.504 274.861 160.656 275.531 160.656 276.57C160.656 277.664 161.559 278.348 162.912 278.348ZM161.6 281.232C158.811 281.232 156.691 279.428 156.691 276.789C156.691 274.123 158.742 272.578 162.393 272.359L166.084 272.141V271.17C166.084 269.803 165.127 269.01 163.623 269.01C162.133 269.01 161.189 269.748 160.998 270.828H157.348C157.498 267.984 159.918 266.029 163.801 266.029C167.561 266.029 170.008 267.971 170.008 270.924V281H166.152V278.758H166.07C165.25 280.316 163.432 281.232 161.6 281.232ZM173.658 262.967H177.65V266.344H180.357V269.352H177.65V276.365C177.65 277.486 178.197 278.02 179.373 278.02C179.729 278.02 180.098 277.992 180.344 277.951V280.891C179.934 280.986 179.25 281.055 178.443 281.055C174.998 281.055 173.658 279.906 173.658 277.049V269.352H171.594V266.344H173.658V262.967ZM189.053 281.314C184.623 281.314 181.793 278.471 181.793 273.658C181.793 268.914 184.664 266.029 189.053 266.029C193.441 266.029 196.312 268.9 196.312 273.658C196.312 278.484 193.482 281.314 189.053 281.314ZM189.053 278.266C191.008 278.266 192.252 276.611 192.252 273.672C192.252 270.76 190.994 269.078 189.053 269.078C187.111 269.078 185.84 270.76 185.84 273.672C185.84 276.611 187.084 278.266 189.053 278.266ZM217.34 277.582V281H204.27V261.271H217.34V264.676H208.398V269.434H216.834V272.605H208.398V277.582H217.34ZM220.074 281V261.271H224.066V281H220.074ZM226.828 281V266.344H230.82V281H226.828ZM228.824 264.73C227.621 264.73 226.691 263.814 226.691 262.666C226.691 261.504 227.621 260.602 228.824 260.602C230.027 260.602 230.957 261.504 230.957 262.666C230.957 263.814 230.027 264.73 228.824 264.73ZM234.553 262.967H238.545V266.344H241.252V269.352H238.545V276.365C238.545 277.486 239.092 278.02 240.268 278.02C240.623 278.02 240.992 277.992 241.238 277.951V280.891C240.828 280.986 240.145 281.055 239.338 281.055C235.893 281.055 234.553 279.906 234.553 277.049V269.352H232.488V266.344H234.553V262.967ZM249.797 268.982C248.047 268.982 246.789 270.309 246.652 272.141H252.873C252.791 270.268 251.574 268.982 249.797 268.982ZM252.928 276.516H256.592C256.154 279.387 253.529 281.314 249.906 281.314C245.395 281.314 242.688 278.43 242.688 273.74C242.688 269.064 245.422 266.029 249.756 266.029C254.021 266.029 256.715 268.914 256.715 273.371V274.588H246.611V274.834C246.611 276.926 247.938 278.361 249.975 278.361C251.438 278.361 252.559 277.637 252.928 276.516ZM277.592 281L276.088 276.215H269.156L267.652 281H263.414L270.264 261.271H275.117L281.98 281H277.592ZM272.574 265.045L270.045 273.125H275.199L272.67 265.045H272.574ZM296.705 266.344V281H292.85V278.361H292.768C292.043 280.207 290.594 281.273 288.379 281.273C285.207 281.273 283.102 279.209 283.102 275.791V266.344H287.094V274.957C287.094 276.912 288.064 277.951 289.828 277.951C291.605 277.951 292.713 276.68 292.713 274.738V266.344H296.705ZM300.369 262.967H304.361V266.344H307.068V269.352H304.361V276.365C304.361 277.486 304.908 278.02 306.084 278.02C306.439 278.02 306.809 277.992 307.055 277.951V280.891C306.645 280.986 305.961 281.055 305.154 281.055C301.709 281.055 300.369 279.906 300.369 277.049V269.352H298.305V266.344H300.369V262.967ZM309.352 281V261.271H313.275V268.955H313.357C314.137 267.109 315.736 266.07 317.965 266.07C321.219 266.07 323.078 268.176 323.078 271.566V281H319.086V272.414C319.086 270.527 318.156 269.379 316.338 269.379C314.451 269.379 313.344 270.705 313.344 272.633V281H309.352ZM332.361 281.314C327.932 281.314 325.102 278.471 325.102 273.658C325.102 268.914 327.973 266.029 332.361 266.029C336.75 266.029 339.621 268.9 339.621 273.658C339.621 278.484 336.791 281.314 332.361 281.314ZM332.361 278.266C334.316 278.266 335.561 276.611 335.561 273.672C335.561 270.76 334.303 269.078 332.361 269.078C330.42 269.078 329.148 270.76 329.148 273.672C329.148 276.611 330.393 278.266 332.361 278.266ZM341.686 281V266.344H345.541V268.982H345.623C346.143 267.123 347.387 266.111 349.109 266.111C349.574 266.111 349.971 266.18 350.244 266.262V269.775C349.916 269.639 349.369 269.543 348.795 269.543C346.826 269.543 345.678 270.746 345.678 272.811V281H341.686Z" fill="white"/>
<path d="M151.461 71.6091L231 25.6875L310.539 71.6091V163.452L231 209.374L151.461 163.452V71.6091Z" stroke="url(#paint0_linear_5005_443)" stroke-width="2.92284"/>
<path d="M161.586 77.4549L231 37.3789L300.414 77.4549V157.607L231 197.683L161.586 157.607V77.4549Z" stroke="url(#paint1_linear_5005_443)" stroke-width="2.92284"/>
<path d="M171.711 83.3006L231 49.0703L290.289 83.3006V151.761L231 185.991L171.711 151.761V83.3006Z" stroke="url(#paint2_linear_5005_443)" stroke-width="2.92284"/>
<path d="M181.837 89.1463L231 60.7617L280.164 89.1463V145.916L231 174.3L181.837 145.916V89.1463Z" stroke="url(#paint3_linear_5005_443)" stroke-width="2.92284"/>
<path d="M191.962 94.9921L231 72.4531L270.039 94.9921V140.07L231 162.609L191.962 140.07V94.9921Z" stroke="url(#paint4_linear_5005_443)" stroke-width="2.92284"/>
<path d="M231 82.4568L261.375 99.9938V135.068L231 152.605L200.625 135.068V99.9938L231 82.4568Z" fill="url(#paint5_radial_5005_443)"/>
<path d="M242.277 99.281C241.192 98.6879 238.12 99.0529 234.46 100.194C227.999 104.665 222.532 111.235 222.171 121.774C222.08 122.047 221.448 121.728 221.357 121.682C219.595 118.306 218.918 114.748 220.363 109.638C220.634 109.181 219.731 108.634 219.595 108.771C219.279 109.09 217.924 110.55 217.065 112.101C212.682 119.812 215.529 129.621 223.21 133.955C230.891 138.29 240.56 135.506 244.852 127.75C249.732 118.762 245.168 100.924 242.277 99.281Z" fill="white"/>
<rect x="139.5" y="303.5" width="183" height="36" rx="18" stroke="white"/>
<path d="M247.867 326V324.134H242.945V322.616C243.757 321.085 245.121 318.925 247.04 316.136H249.549V322.691H250.875V324.134H249.549V326H247.867ZM244.545 322.685V322.732H247.895V317.441H247.867C247.033 318.649 246.366 319.647 245.864 320.436C245.363 321.224 244.923 321.974 244.545 322.685ZM253.186 326.075C252.908 326.075 252.673 325.982 252.481 325.795C252.295 325.604 252.201 325.369 252.201 325.091C252.201 324.817 252.295 324.585 252.481 324.394C252.673 324.202 252.908 324.106 253.186 324.106C253.459 324.106 253.689 324.202 253.876 324.394C254.067 324.585 254.163 324.817 254.163 325.091C254.163 325.369 254.067 325.604 253.876 325.795C253.689 325.982 253.459 326.075 253.186 326.075ZM259.386 326.198C258.183 326.198 257.237 325.74 256.549 324.824C255.865 323.904 255.523 322.648 255.523 321.058C255.523 319.476 255.868 318.228 256.556 317.312C257.244 316.396 258.187 315.938 259.386 315.938C260.584 315.938 261.525 316.396 262.209 317.312C262.893 318.223 263.234 319.469 263.234 321.051C263.234 322.637 262.893 323.892 262.209 324.817C261.525 325.738 260.584 326.198 259.386 326.198ZM259.386 324.756C260.037 324.756 260.543 324.43 260.903 323.778C261.268 323.127 261.45 322.22 261.45 321.058C261.45 319.905 261.268 319.005 260.903 318.357C260.539 317.706 260.033 317.38 259.386 317.38C258.739 317.38 258.228 317.706 257.854 318.357C257.485 319.009 257.301 319.907 257.301 321.051C257.301 322.213 257.483 323.122 257.848 323.778C258.217 324.43 258.729 324.756 259.386 324.756ZM269.257 317.564V320.935H271.246C271.807 320.935 272.242 320.786 272.552 320.49C272.862 320.194 273.017 319.779 273.017 319.246C273.017 318.727 272.855 318.316 272.531 318.016C272.208 317.715 271.768 317.564 271.212 317.564H269.257ZM269.257 322.288V326H267.493V316.136H271.41C272.472 316.136 273.306 316.411 273.912 316.963C274.518 317.51 274.821 318.257 274.821 319.205C274.821 319.866 274.657 320.449 274.329 320.955C274.001 321.456 273.545 321.812 272.962 322.021L275.115 326H273.105L271.164 322.288H269.257ZM278.69 324.831C279.178 324.831 279.588 324.688 279.921 324.4C280.258 324.109 280.427 323.746 280.427 323.313V322.76L278.752 322.862C278.342 322.89 278.023 322.992 277.795 323.17C277.572 323.343 277.46 323.573 277.46 323.86C277.46 324.157 277.572 324.394 277.795 324.571C278.023 324.744 278.321 324.831 278.69 324.831ZM278.178 326.116C277.471 326.116 276.89 325.913 276.435 325.508C275.983 325.102 275.758 324.576 275.758 323.929C275.758 323.286 275.995 322.778 276.469 322.404C276.947 322.031 277.629 321.816 278.513 321.762L280.427 321.652V321.133C280.427 320.755 280.306 320.461 280.064 320.251C279.827 320.041 279.497 319.937 279.073 319.937C278.677 319.937 278.353 320.025 278.103 320.203C277.852 320.381 277.699 320.622 277.645 320.928H276.065C276.102 320.24 276.396 319.681 276.947 319.253C277.503 318.82 278.235 318.604 279.142 318.604C280.039 318.604 280.757 318.822 281.295 319.26C281.837 319.697 282.108 320.281 282.108 321.01V326H280.468V324.845H280.434C280.229 325.232 279.919 325.542 279.504 325.774C279.089 326.002 278.647 326.116 278.178 326.116ZM283.954 317.059H285.656V318.754H287.023V320.066H285.656V323.833C285.656 324.129 285.727 324.348 285.868 324.489C286.009 324.631 286.23 324.701 286.531 324.701C286.732 324.701 286.894 324.69 287.017 324.667V325.966C286.812 326.011 286.518 326.034 286.135 326.034C285.351 326.034 284.79 325.884 284.453 325.583C284.12 325.282 283.954 324.779 283.954 324.072V320.066H282.915V318.754H283.954V317.059ZM288.227 326V318.754H289.929V326H288.227ZM289.744 317.537C289.562 317.715 289.339 317.804 289.074 317.804C288.81 317.804 288.587 317.715 288.404 317.537C288.222 317.355 288.131 317.136 288.131 316.881C288.131 316.621 288.222 316.402 288.404 316.225C288.587 316.042 288.81 315.951 289.074 315.951C289.339 315.951 289.562 316.042 289.744 316.225C289.931 316.402 290.024 316.621 290.024 316.881C290.024 317.136 289.931 317.355 289.744 317.537ZM291.357 326V318.754H292.991V319.998H293.025C293.226 319.561 293.518 319.221 293.9 318.979C294.288 318.738 294.755 318.617 295.302 318.617C296.095 318.617 296.71 318.856 297.147 319.335C297.59 319.813 297.811 320.474 297.811 321.317V326H296.108V321.659C296.108 321.14 295.985 320.743 295.739 320.47C295.498 320.196 295.138 320.06 294.659 320.06C294.172 320.06 293.782 320.219 293.49 320.538C293.203 320.857 293.06 321.279 293.06 321.803V326H291.357ZM302.377 324.653C302.924 324.653 303.359 324.448 303.683 324.038C304.006 323.623 304.168 323.063 304.168 322.356C304.168 321.65 304.004 321.087 303.676 320.668C303.352 320.244 302.919 320.032 302.377 320.032C301.839 320.032 301.411 320.242 301.092 320.661C300.777 321.08 300.62 321.646 300.62 322.356C300.62 323.072 300.777 323.635 301.092 324.045C301.411 324.451 301.839 324.653 302.377 324.653ZM302.37 328.734C301.481 328.734 300.739 328.529 300.142 328.119C299.549 327.714 299.21 327.189 299.123 326.547H300.812C300.903 326.825 301.094 327.048 301.386 327.217C301.677 327.39 302.024 327.477 302.425 327.477C302.972 327.477 303.398 327.335 303.703 327.053C304.013 326.775 304.168 326.401 304.168 325.932V324.708H304.127C303.936 325.104 303.637 325.421 303.231 325.658C302.83 325.891 302.372 326.007 301.857 326.007C300.955 326.007 300.233 325.679 299.69 325.022C299.148 324.362 298.877 323.471 298.877 322.35C298.877 321.206 299.148 320.301 299.69 319.636C300.233 318.966 300.966 318.631 301.892 318.631C302.402 318.631 302.858 318.754 303.259 319C303.66 319.242 303.965 319.574 304.175 319.998H304.202V318.754H305.87V325.884C305.87 326.75 305.551 327.44 304.913 327.955C304.275 328.475 303.427 328.734 302.37 328.734Z" fill="white"/>
<path d="M195.263 325.355L192.328 326.899C191.695 327.231 190.956 326.695 191.076 325.99L191.637 322.721L189.262 320.404C188.749 319.906 189.032 319.037 189.739 318.933L193.022 318.457L194.49 315.481C194.806 314.84 195.72 314.84 196.037 315.481L197.504 318.457L200.787 318.933C201.494 319.036 201.777 319.905 201.265 320.404L198.89 322.721L199.45 325.99C199.57 326.695 198.831 327.232 198.199 326.899L195.263 325.355Z" fill="white"/>
<path d="M161.263 325.355L158.328 326.899C157.695 327.231 156.956 326.695 157.076 325.99L157.637 322.721L155.262 320.404C154.749 319.906 155.032 319.037 155.739 318.933L159.022 318.457L160.49 315.481C160.806 314.84 161.72 314.84 162.037 315.481L163.504 318.457L166.787 318.933C167.494 319.036 167.777 319.905 167.265 320.404L164.89 322.721L165.45 325.99C165.57 326.695 164.831 327.232 164.199 326.899L161.263 325.355Z" fill="white"/>
<path d="M212.263 325.355L209.328 326.899C208.695 327.231 207.956 326.695 208.076 325.99L208.637 322.721L206.262 320.404C205.749 319.906 206.032 319.037 206.739 318.933L210.022 318.457L211.49 315.481C211.806 314.84 212.72 314.84 213.037 315.481L214.504 318.457L217.787 318.933C218.494 319.036 218.777 319.905 218.265 320.404L215.89 322.721L216.45 325.99C216.57 326.695 215.831 327.232 215.199 326.899L212.263 325.355Z" fill="white"/>
<path d="M178.263 325.355L175.328 326.899C174.695 327.231 173.956 326.695 174.076 325.99L174.637 322.721L172.262 320.404C171.749 319.906 172.032 319.037 172.739 318.933L176.022 318.457L177.49 315.481C177.806 314.84 178.72 314.84 179.037 315.481L180.504 318.457L183.787 318.933C184.494 319.036 184.777 319.905 184.265 320.404L181.89 322.721L182.45 325.99C182.57 326.695 181.831 327.232 181.199 326.899L178.263 325.355Z" fill="white"/>
<defs>
<linearGradient id="paint0_linear_5005_443" x1="200.31" y1="24" x2="270.458" y2="211.061" gradientUnits="userSpaceOnUse">
<stop stop-color="white"/>
<stop offset="1" stop-color="white" stop-opacity="0"/>
</linearGradient>
<linearGradient id="paint1_linear_5005_443" x1="204.146" y1="35.6914" x2="265.526" y2="199.37" gradientUnits="userSpaceOnUse">
<stop stop-color="white"/>
<stop offset="1" stop-color="white" stop-opacity="0"/>
</linearGradient>
<linearGradient id="paint2_linear_5005_443" x1="207.983" y1="47.3828" x2="260.594" y2="187.679" gradientUnits="userSpaceOnUse">
<stop stop-color="white"/>
<stop offset="1" stop-color="white" stop-opacity="0"/>
</linearGradient>
<linearGradient id="paint3_linear_5005_443" x1="211.819" y1="59.0742" x2="255.662" y2="175.988" gradientUnits="userSpaceOnUse">
<stop stop-color="white"/>
<stop offset="1" stop-color="white" stop-opacity="0"/>
</linearGradient>
<linearGradient id="paint4_linear_5005_443" x1="215.655" y1="70.7656" x2="250.729" y2="164.296" gradientUnits="userSpaceOnUse">
<stop stop-color="white"/>
<stop offset="1" stop-color="white" stop-opacity="0"/>
</linearGradient>
<radialGradient id="paint5_radial_5005_443" cx="0" cy="0" r="1" gradientUnits="userSpaceOnUse" gradientTransform="translate(231 117.531) rotate(90) scale(35.074 35.074)">
<stop stop-color="white" stop-opacity="0.9"/>
<stop offset="1" stop-color="white" stop-opacity="0"/>
</radialGradient>
</defs>
</svg>
